<svg width="380" height="48" viewBox="0 0 380 48" fill="none" xmlns="http://www.w3.org/2000/svg">
<path d="M85.0192 20.6836V17.9424H73.4844V20.6836H77.4265V29.8143H81.0567V20.6836H85.0192ZM97.6584 29.8143L96.4211 26.0464L96.2575 25.6327L96.0887 25.2838L95.9967 25.1194L95.8996 24.9848L95.782 24.8452L95.6644 24.7306L95.5212 24.616L95.378 24.5013L95.2349 24.4316L95.0713 24.3369L94.8821 24.2671L94.6929 24.1973L94.4782 24.1525L94.2634 24.1076L94.5702 24.0378L94.8565 23.9431L95.1429 23.8534L95.4036 23.7338L95.6644 23.6192L95.8996 23.4796L96.1143 23.3201L96.3035 23.1357L96.4927 22.9513L96.6614 22.742L96.8046 22.5127L96.9222 22.2785L97.0142 22.0243L97.0858 21.7502L97.1113 21.4462V21.1222V20.8929V20.6836L97.0653 20.4743L97.0398 20.2699L96.9682 20.0855L96.8966 19.9211L96.825 19.7366L96.733 19.5772L96.6358 19.4376L96.5438 19.2981L96.4211 19.1585L96.2779 19.019L96.0172 18.7897L95.7104 18.6053L95.378 18.4408L95.0253 18.2813L94.6673 18.1916L94.289 18.0969L93.8851 18.0271L93.4811 17.9823L93.0568 17.9424H86.5633V29.8143H90.0964V25.3287H91.0678H91.3081H91.5229H91.6916L91.8552 25.3735L91.9984 25.4184L92.1416 25.4682L92.2387 25.538L92.3563 25.6277L92.4483 25.7224L92.5199 25.8121L92.5915 25.9517L92.6631 26.0663L92.7807 26.3903L92.9238 26.7641L93.8748 29.7894L97.6584 29.8143ZM93.5067 21.5608V21.795L93.4556 22.0044L93.4096 22.1888L93.3175 22.3483L93.2204 22.4878L93.1028 22.6024L92.9596 22.7171L92.8165 22.8118L92.6528 22.8815L92.4586 22.9513L92.2949 22.9962H92.0802L91.6763 23.041H91.2519H90.0861V20.1553H91.3235H91.7479L92.1518 20.2051H92.341L92.5097 20.25L92.6733 20.2998L92.842 20.3696L92.9852 20.4593L93.1232 20.554L93.2204 20.6687L93.3175 20.8082L93.4096 20.9478L93.4556 21.1322L93.5067 21.3166V21.5209V21.5608ZM102.592 29.8143V17.9424H98.9878V29.8143H102.592ZM115.523 26.485V26.1859L115.477 25.9068L115.405 25.6526L115.334 25.3985L115.216 25.1692L115.073 24.9599L114.93 24.7755L114.766 24.5911L114.577 24.4316L114.362 24.2671L114.122 24.1275L113.887 24.0129L113.652 23.9182L113.365 23.8285L113.105 23.7587L112.818 23.689L113.079 23.6192L113.34 23.5494L113.601 23.4597L113.841 23.3451L114.056 23.2055L114.245 23.066L114.434 22.9264L114.598 22.742L114.766 22.5576L114.884 22.3732L115.002 22.1639L115.099 21.9346L115.17 21.6804L115.216 21.4262L115.242 21.172V20.868V20.6637V20.4743L115.216 20.2699L115.17 20.0855L115.119 19.9211L115.048 19.7616L114.981 19.5971L114.91 19.4376L114.72 19.1834L114.48 18.9292L114.219 18.7199L113.959 18.5355L113.652 18.396L113.319 18.2564L112.987 18.1667L112.629 18.072L112.271 18.0022L111.893 17.9574L111.515 17.9324H104.919V29.8143H111.054H111.504H111.954L112.384 29.7445L112.808 29.6747L113.212 29.585L113.616 29.4405L113.969 29.281L114.137 29.1863L114.306 29.0966L114.444 28.982L114.613 28.8623L114.731 28.7278L114.874 28.5882L114.991 28.4487L115.088 28.2643L115.181 28.0998L115.278 27.9154L115.349 27.711L115.421 27.5017L115.467 27.2924L115.492 27.0382V26.8089V26.5298L115.523 26.485ZM111.704 21.3564V21.5608L111.658 21.7701L111.607 21.9346L111.515 22.0941L111.417 22.2336L111.3 22.3483L111.182 22.4629L111.039 22.5576L110.875 22.6274L110.707 22.6971L110.543 22.742L110.354 22.7869L109.996 22.8317H109.618H108.38V19.936H109.781L110.139 19.9609L110.471 20.0058L110.635 20.0506L110.804 20.1005L110.947 20.1703L111.111 20.24L111.228 20.3297L111.346 20.4444L111.443 20.559L111.535 20.6786L111.607 20.8381L111.658 21.0026L111.704 21.187V21.3714V21.3564ZM111.918 26.2557L111.893 26.485L111.847 26.6943L111.796 26.8787L111.704 27.0432L111.586 27.1778L111.469 27.2924L111.325 27.407L111.157 27.5017L110.993 27.5964L110.804 27.6662L110.615 27.711L110.42 27.7559L110.022 27.8057H109.618H108.38V24.6808H109.592H110.022L110.42 24.7256L110.615 24.7505L110.824 24.8004L110.993 24.8652L111.182 24.935L111.325 25.0296L111.469 25.1443L111.607 25.2838L111.704 25.4184L111.796 25.5829L111.872 25.7673V26.0015L111.898 26.2308L111.918 26.2557ZM128.101 25.1443V17.9424H124.491V25.4433V25.6776V25.9068L124.445 26.1162L124.374 26.3255L124.302 26.5099L124.21 26.6943L124.087 26.8787L123.944 27.0183L123.801 27.1578L123.637 27.2924L123.448 27.3871L123.259 27.4569L123.019 27.5266L122.783 27.5715H122.201L121.965 27.5266L121.751 27.4569L121.536 27.3871L121.372 27.2924L121.204 27.1578L121.06 27.0183L120.943 26.8787L120.825 26.6943L120.733 26.5099L120.662 26.3255L120.61 26.1162L120.564 25.9068L120.518 25.6776V25.4433V25.2141V17.9424H116.939V25.6327L116.965 25.9068V26.2059L117.011 26.465L117.083 26.7392L117.154 26.9684L117.226 27.2276L117.343 27.4569L117.435 27.6662L117.558 27.8705L117.696 28.0799L117.839 28.2643L117.982 28.4537L118.151 28.6131L118.34 28.7776L118.504 28.9122L118.693 29.0517L118.908 29.1913L119.123 29.3059L119.337 29.3956L119.787 29.605L120.299 29.7445L120.81 29.8841L121.357 29.9538L121.925 29.9987L122.492 30.0236L123.065 29.9987L123.632 29.9538L124.179 29.8591L124.691 29.7196L125.202 29.5601L125.672 29.3508L125.887 29.2361L126.102 29.1016L126.317 28.982L126.506 28.8175L126.695 28.658L126.884 28.4935L127.053 28.334L127.191 28.1496L127.36 27.9403L127.477 27.731L127.62 27.5266L127.717 27.2924L127.835 27.0631L127.907 26.8339L127.999 26.5797L128.05 26.3006L128.096 26.0464L128.142 25.7473V25.4682V25.1443H128.101ZM142.141 29.8143V17.9424H139.007V27.1778L135.443 17.9424H130.126V29.8143H133.255V20.6138L136.793 29.8143H142.141ZM157.235 29.8143L152.689 17.9424H147.852L143.363 29.8243H146.942L147.888 27.0532H152.515L153.487 29.8243L157.235 29.8143ZM151.856 24.7505H148.532L150.22 19.9908L151.856 24.7505ZM167.563 29.8143V27.088H162.082V17.9424H158.503V29.8143H167.563ZM188.28 23.9232V23.5544V23.1806L188.229 22.8566L188.183 22.5127L188.137 22.1888L188.066 21.8897L187.969 21.5857L187.877 21.3116L187.779 21.0325L187.662 20.7783L187.519 20.5241L187.375 20.2949L187.212 20.0606L187.043 19.8313L186.854 19.6469L186.624 19.4376L186.435 19.2781L186.22 19.0937L185.985 18.9542L185.744 18.7897L185.484 18.6551L185.223 18.5355L184.962 18.4209L184.681 18.3312L184.395 18.2365L184.088 18.1667L183.776 18.0969L183.444 18.0521L183.111 18.0072H182.758L182.401 17.9823H176.582V29.8143H182.206H182.564H182.896L183.254 29.7644L183.561 29.7196L183.894 29.6498L184.2 29.585L184.507 29.4903L184.793 29.3956L185.08 29.281L185.34 29.1664L185.601 29.0268L185.836 28.8623L186.077 28.7278L186.312 28.5384L186.527 28.359L186.741 28.1746L186.931 27.9652L187.094 27.7559L187.283 27.5266L187.427 27.2924L187.57 27.0382L187.713 26.784L187.83 26.5099L187.928 26.2308L188.02 25.9268L188.091 25.6277L188.163 25.3088L188.209 24.9848V24.6359L188.234 24.287V23.9431L188.28 23.9232ZM184.507 23.9232V24.3169L184.482 24.6858L184.41 25.0546L184.338 25.4034L184.221 25.7274L184.078 26.0264L183.914 26.3056L183.725 26.5548L183.51 26.7641L183.275 26.9734L182.989 27.1379L182.702 27.2974L182.37 27.412L182.017 27.4818L181.613 27.5266H181.209H180.212V20.245H181.848L182.227 20.3148L182.533 20.4344L182.866 20.549L183.127 20.7085L183.387 20.8929L183.602 21.1023L183.817 21.3564L183.98 21.6106L184.124 21.8897L184.241 22.1888L184.338 22.5127L184.41 22.8566L184.456 23.2055L184.482 23.5544V23.9232H184.507ZM198.961 29.8392V27.5266H193.194V24.9599H198.603V22.6722H193.194V20.245H198.818V17.9424H189.661V29.8143L198.961 29.8392ZM217.204 29.5651L217.112 27.113L216.8 27.2276L216.494 27.3422L216.187 27.412L215.855 27.4818L215.543 27.5266L215.215 27.5765H214.883H214.147L213.717 27.5316L213.339 27.4369L212.981 27.3223L212.649 27.1827L212.342 27.0232L212.056 26.8388L211.795 26.6046L211.56 26.3504L211.345 26.0763L211.166 25.7673L211.023 25.4433L210.905 25.0994L210.834 24.7057L210.783 24.312V23.8983V23.4796L210.834 23.0909L210.926 22.7171L211.048 22.3732L211.186 22.0492L211.376 21.7253L211.59 21.4462L211.831 21.192L212.091 20.9876L212.398 20.7783L212.705 20.5939L213.063 20.4543L213.416 20.3397L213.799 20.2699L214.203 20.2251H214.627H214.939L215.246 20.2699L215.553 20.2949L215.865 20.3646L216.478 20.4992L217.051 20.6886L217.169 18.1966L216.386 18.0321L215.579 17.8976L215.175 17.8477H214.771L214.367 17.8228H213.963H213.61L213.278 17.8477H212.92L212.587 17.8976L212.255 17.9424L211.923 18.0321L211.616 18.1019L211.284 18.1966L210.977 18.3112L210.691 18.4259L210.384 18.5654L210.118 18.705L209.837 18.8644L209.576 19.0289L209.315 19.2133L209.075 19.4227L208.84 19.6071L208.625 19.8363L208.41 20.0457L208.201 20.2998L208.032 20.5291L207.843 20.7833L207.699 21.0624L207.556 21.3415L207.418 21.6156L207.321 21.9147L207.229 22.2386L207.132 22.5426L207.081 22.8865L207.035 23.2105V23.5594L207.009 23.9282L207.035 24.297V24.6658L207.06 25.0147L207.132 25.3586L207.203 25.6826L207.296 26.0065L207.393 26.3105L207.51 26.6096L207.653 26.8837L207.797 27.1429L207.96 27.417L208.149 27.6462L208.339 27.8805L208.533 28.1098L208.742 28.3191L208.983 28.5234L209.218 28.7128L209.479 28.8723L209.74 29.0368L210 29.1963L210.287 29.3358L210.573 29.4505L210.88 29.5701L211.186 29.6598L211.519 29.7495L211.831 29.8442L212.189 29.904L212.521 29.9489L212.879 29.9987H213.237L213.59 30.0236H214.372L214.776 29.9987L215.205 29.9538L215.609 29.904L216.008 29.8342L216.412 29.7694L216.816 29.6548L217.194 29.5402L217.204 29.5651ZM230.539 23.9232V23.5544V23.2055L230.513 22.8566L230.467 22.5127L230.396 22.1888L230.324 21.8897L230.232 21.5857L230.135 21.2867L230.017 21.0125L229.895 20.7584L229.757 20.4793L229.614 20.25L229.45 20.0157L229.281 19.7865L229.092 19.5772L228.903 19.3678L228.688 19.1834L228.448 18.999L228.238 18.8395L227.977 18.6751L227.717 18.5355L227.456 18.4209L227.17 18.2813L226.883 18.1916L226.602 18.0969L226.29 18.0072L225.958 17.9374L225.625 17.8926L225.293 17.8427L224.94 17.7979H224.582H224.204H223.846L223.493 17.8228H223.135L222.803 17.8726L222.471 17.9175L222.164 18.0072L221.852 18.077L221.545 18.1717L221.259 18.2863L220.998 18.4009L220.717 18.5405L220.477 18.68L220.216 18.8395L219.981 19.004L219.766 19.1884L219.551 19.3977L219.362 19.5821L219.173 19.8114L218.984 20.0207L218.841 20.2749L218.677 20.5042L218.534 20.7584L218.411 21.0375L218.293 21.3166L218.201 21.5907L218.104 21.8897L218.033 22.2137L217.961 22.5177L217.915 22.8616L217.89 23.1856V23.5345V24.2472V24.621L217.915 24.9649L217.961 25.2888L218.033 25.6128L218.104 25.9118L218.176 26.2109L218.293 26.5149L218.391 26.794L218.534 27.0681L218.651 27.3223L218.815 27.5765L218.984 27.8107L219.147 28.0151L219.337 28.2493L219.531 28.4337L219.746 28.6181L219.955 28.8025L220.19 28.962L220.431 29.1265L220.691 29.2611L220.952 29.4006L221.239 29.5202L221.52 29.6349L221.832 29.7246L222.138 29.7943L222.445 29.8641L222.778 29.9339L223.135 29.9837H223.468L223.846 30.0087H224.582L224.94 29.9837H225.273L225.625 29.9339L225.958 29.8641L226.27 29.7943L226.576 29.7046L226.883 29.6099L227.17 29.5202L227.43 29.3807L227.717 29.2611L227.977 29.1066L228.213 28.962L228.448 28.7826L228.663 28.6181L228.877 28.4088L229.066 28.2244L229.256 27.9951L229.45 27.7858L229.614 27.5565L229.757 27.2974L229.895 27.0482L230.017 26.7691L230.135 26.49L230.232 26.2109L230.324 25.9118L230.396 25.5879L230.467 25.2689L230.513 24.9449L230.539 24.596V24.2472V23.9232ZM226.791 23.9232V24.2222V24.5711L226.74 24.8951L226.694 25.219L226.622 25.538L226.551 25.862L226.433 26.166L226.316 26.465L226.147 26.7192L225.958 26.9734L225.748 27.2027L225.508 27.3921L225.39 27.4569L225.247 27.5266L225.078 27.5964L224.94 27.6413L224.772 27.6911L224.582 27.716H224.393H224.015H223.846L223.657 27.6911L223.514 27.6413L223.35 27.5964L223.207 27.5266L223.064 27.4569L222.946 27.3671L222.706 27.1827L222.496 26.9485L222.307 26.6943L222.138 26.4401L222.021 26.1411L221.903 25.842L221.806 25.5181L221.735 25.1941L221.688 24.8702L221.663 24.5462V24.2222L221.637 23.9232L221.663 23.5992V23.3002L221.688 22.9762L221.735 22.6274L221.806 22.3034L221.903 22.0044L221.995 21.6804L222.138 21.4013L222.307 21.1272L222.471 20.873L222.686 20.6387L222.926 20.4344L223.069 20.3447L223.212 20.2749L223.355 20.2051L223.498 20.1603L223.662 20.1104H223.851H224.02H224.398H224.588H224.777L224.945 20.1603L225.083 20.2051L225.252 20.2749L225.395 20.3447L225.482 20.4344L225.723 20.6188L225.932 20.8281L226.121 21.0823L226.29 21.3614L226.408 21.6355L226.525 21.9396L226.597 22.2635L226.669 22.5825L226.715 22.9065L226.766 23.2553V23.5793V23.9033L226.791 23.9232ZM243.95 29.8392V17.9424H240.821V27.1778L237.242 17.9424H231.925V29.8143H235.079V20.6138L238.592 29.8143L243.95 29.8392ZM256.855 20.6836V17.9424H245.326V20.6836H249.263V29.8143H252.893V20.6836H256.855ZM269.004 29.8143L264.474 17.9424H259.632L255.137 29.8143H258.676L259.647 27.0432H264.274L265.22 29.8143H269.004ZM263.62 24.7505H260.322L262.004 19.9908L263.62 24.7505ZM279.424 26.2457V25.8969L279.398 25.553L279.327 25.2539L279.235 24.9748L279.117 24.6957L278.994 24.4665L278.831 24.2372L278.642 24.0279L278.447 23.8435L278.212 23.679L277.977 23.5195L277.716 23.36L277.43 23.2404L277.144 23.1058L276.837 22.9862L276.504 22.8965L275.15 22.4778L274.894 22.3881L274.567 22.2785L274.26 22.1639L273.948 22.0492L273.81 21.9545L273.667 21.8847L273.544 21.795L273.452 21.6804L273.355 21.5857L273.288 21.4462L273.263 21.3315V21.192V21.0076L273.309 20.8481L273.38 20.7085L273.478 20.5939L273.616 20.4743L273.759 20.3846L273.902 20.3148L274.091 20.245L274.449 20.1304L274.827 20.0855L275.211 20.0357H275.922L276.32 20.0855H276.724L277.128 20.1553L277.532 20.2251L277.911 20.3198L278.294 20.4344L278.672 20.574L278.77 18.1218L278.34 18.0321L277.89 17.9623L277.461 17.8926L277.011 17.8228L276.561 17.7779L276.131 17.753H275.681H274.771H274.296L273.82 17.7979L273.345 17.8676L272.874 17.9823L272.399 18.1019L271.969 18.2614L271.545 18.4458L271.33 18.5405L271.141 18.6551L270.952 18.7947L270.783 18.9093L270.619 19.0688L270.476 19.2083L270.333 19.3728L270.19 19.5572L270.072 19.7416L269.965 19.936L269.873 20.1453L269.801 20.3497L269.73 20.5839L269.684 20.8381L269.658 21.0923V21.6804L269.704 21.9794L269.755 22.2585L269.847 22.5327L269.945 22.7869L270.088 23.0211L270.231 23.2254L270.395 23.4348L270.584 23.6192L270.798 23.8036L271.008 23.9681L271.248 24.1275L271.509 24.2671L271.77 24.3817L272.056 24.5013L272.363 24.5911L273.621 25.0047L273.928 25.0994L274.26 25.2141L274.618 25.3536L274.976 25.5131L275.139 25.6078L275.308 25.7025L275.446 25.7922L275.589 25.9168L275.681 26.0364L275.753 26.171L275.799 26.3105L275.824 26.4501L275.799 26.6345V26.799L275.727 26.9585L275.63 27.098L275.538 27.2126L275.395 27.3024L275.252 27.397L275.109 27.4917L274.945 27.5615L274.776 27.6064L274.613 27.6512H274.418L274.066 27.6961H273.237H272.726L272.215 27.6213L271.703 27.5565L271.228 27.4369L270.758 27.3223L270.282 27.1628L269.832 26.9734L269.735 29.4953L270.246 29.6099L270.793 29.7246L271.34 29.8193L271.882 29.909L272.429 29.9588L272.977 30.0037L273.519 30.0286H274.541L275.052 29.9837L275.523 29.9339L275.973 29.8392L276.448 29.7246L276.878 29.585L277.307 29.4255L277.686 29.2212L277.875 29.1066L278.064 28.9869L278.233 28.8474L278.396 28.7078L278.539 28.5733L278.683 28.4088L278.821 28.2244L278.943 28.0599L279.035 27.8755L279.133 27.6712L279.225 27.4618L279.276 27.2326L279.342 26.9983V26.7691L279.368 26.5149V26.2358L279.424 26.2457ZM299.62 23.9232V23.5544V23.1806L299.569 22.8566L299.523 22.5127L299.477 22.1888L299.405 21.8897L299.308 21.5857L299.216 21.3116L299.119 21.0325L299.001 20.7783L298.858 20.5241L298.715 20.2949L298.552 20.0606L298.383 19.8313L298.194 19.6469L298.004 19.4376L297.815 19.2781L297.601 19.0937L297.365 18.9542L297.125 18.7897L296.869 18.6551L296.603 18.5355L296.343 18.4209L296.062 18.3312L295.775 18.2365L295.468 18.1667L295.157 18.0969L294.824 18.0521L294.492 18.0072H294.139L293.781 17.9823H287.937V29.8143H293.561H293.919H294.252L294.609 29.7644L294.916 29.7196L295.249 29.6498L295.555 29.585L295.862 29.4903L296.148 29.3956L296.435 29.281L296.696 29.1664L296.956 29.0268L297.191 28.8623L297.452 28.7278L297.667 28.5384L297.882 28.359L298.096 28.1746L298.286 27.9652L298.449 27.7559L298.644 27.5266L298.782 27.2924L298.925 27.0382L299.068 26.784L299.186 26.5099L299.283 26.2308L299.375 25.9268L299.446 25.6277L299.518 25.3088L299.564 24.9848L299.589 24.6359V24.287V23.9431L299.62 23.9232ZM295.847 23.9232V24.3169L295.821 24.6858L295.75 25.0546L295.683 25.4034L295.56 25.7274L295.417 26.0264L295.254 26.3056L295.065 26.5548L294.85 26.7641L294.615 26.9734L294.328 27.1379L294.042 27.2974L293.71 27.412L293.357 27.4818L292.953 27.5266H292.549H291.552V20.245H293.188L293.566 20.3148L293.899 20.4095L294.231 20.5241L294.492 20.6836L294.753 20.868L294.967 21.0773L295.182 21.3315L295.346 21.5857L295.489 21.8648L295.606 22.1639L295.704 22.4878L295.775 22.8317L295.821 23.1806L295.847 23.5295V23.8983V23.9232ZM313.338 29.8392L308.823 17.9424H303.961L299.477 29.8243H303.056L304.028 27.0532H308.629L309.58 29.8243L313.338 29.8392ZM307.964 24.7505H304.667L306.354 19.9908L307.964 24.7505ZM331.908 25.1443V17.9424H328.329V25.2141V25.4433V25.6776V25.9068L328.283 26.1162L328.212 26.3255L328.14 26.5099L328.043 26.6943L327.925 26.8787L327.808 27.0183L327.665 27.1578L327.501 27.2924L327.23 27.412L327.02 27.4818L326.806 27.5515L326.545 27.5964H326.034L325.773 27.5515L325.558 27.4818L325.369 27.412L325.18 27.3173L325.011 27.1827L324.873 27.0432L324.75 26.9036L324.633 26.7192L324.561 26.5348L324.469 26.3504L324.418 26.1411L324.372 25.9318V25.7025V25.4682V17.9424H320.762V25.6327V25.9068L320.788 26.2059L320.859 26.465L320.905 26.7392L320.977 26.9684L321.069 27.2276L321.166 27.4569L321.284 27.6662L321.401 27.8705L321.524 28.0799L321.662 28.2643L321.831 28.4537L321.994 28.6131L322.163 28.7776L322.352 28.9122L322.542 29.0517L322.731 29.1913L322.945 29.3059L323.14 29.4056L323.59 29.6149L324.101 29.7545L324.612 29.894L325.124 29.9638L325.696 30.0087L326.264 30.0336L326.857 30.0087L327.404 29.9638L327.951 29.8691L328.462 29.7296L328.974 29.5701L329.424 29.3607L329.659 29.2461L329.874 29.1115L330.063 28.9919L330.277 28.8275L330.441 28.668L330.63 28.5035L330.799 28.344L330.963 28.1596L331.106 27.9503L331.249 27.7409L331.366 27.5366L331.484 27.3024L331.581 27.0731L331.673 26.8438L331.745 26.5896L331.816 26.3105L331.862 26.0564L331.888 25.7573V25.4782V25.1543L331.908 25.1443ZM345.954 29.8143V17.9424H342.825V27.1778L339.246 17.9324H333.949V29.8143H337.103V20.6138L340.616 29.8143H345.954ZM351.721 29.8143V17.9424H348.142V29.8143H351.721ZM363.322 14.329H361.922L361.876 14.4935L361.829 14.6081L361.758 14.7227L361.661 14.8374L361.569 14.9072L361.451 14.9769L361.308 15.0019H361.165L360.853 14.957L360.546 14.8872L360.214 14.7975L359.881 14.658L359.529 14.5383L359.171 14.4486L358.982 14.4038L358.792 14.3539H358.578H358.388H358.153L357.939 14.4038L357.724 14.4486L357.535 14.5383L357.366 14.658L357.202 14.7975L357.059 14.9321L356.941 15.0965L356.819 15.281L356.727 15.4654L356.655 15.6498L356.584 15.8591L356.466 16.2728L356.42 16.6914H357.795L357.821 16.5519L357.908 16.4472L357.979 16.3326L358.077 16.213L358.194 16.1432L358.312 16.0784L358.455 16.0286H358.598H358.905L359.191 16.0983L359.498 16.213L359.83 16.3276L360.142 16.4422L360.475 16.5618L360.664 16.6067H360.853H361.042H361.472L361.681 16.5618L361.896 16.4921L362.085 16.3974L362.274 16.2827L362.443 16.1681L362.607 16.0086L362.75 15.8441L362.867 15.6847L362.985 15.4953L363.082 15.3109L363.154 15.1065L363.225 14.8972L363.271 14.6879L363.322 14.4785V14.2493V14.329ZM366.835 29.8143L362.279 17.9424H357.437L352.953 29.8243H356.532L357.509 27.0532H362.111L363.062 29.8243L366.835 29.8143ZM361.451 24.7505H358.128L359.81 19.9908L361.451 24.7505ZM379.648 23.9232V23.5544V23.2055L379.602 22.8566L379.556 22.5127L379.51 22.1888L379.433 21.8897L379.341 21.5857L379.244 21.2867L379.127 21.0125L379.009 20.7584L378.866 20.4793L378.723 20.25L378.559 20.0157L378.37 19.7865L378.201 19.5772L377.986 19.3678L377.777 19.1834L377.562 18.999L377.327 18.8395L377.087 18.6751L376.826 18.5355L376.565 18.4209L376.279 18.2813L375.997 18.1916L375.686 18.0969L375.379 18.0072L375.072 17.9374L374.74 17.8926L374.382 17.8427L374.049 17.7979H373.671H373.313H372.935L372.577 17.8228H372.245L371.912 17.8726L371.585 17.9175L371.253 18.0072L370.941 18.077L370.66 18.1717L370.373 18.2863L370.087 18.4009L369.826 18.5405L369.565 18.68L369.325 18.8395L369.09 19.004L368.875 19.1884L368.665 19.3977L368.451 19.5821L368.262 19.8114L368.093 20.0207L367.929 20.2749L367.786 20.5042L367.643 20.7584L367.5 21.0375L367.408 21.3166L367.29 21.5907L367.219 21.8897L367.121 22.2137L367.075 22.5177L367.029 22.8616L366.978 23.1856L366.953 23.5345V24.2472L366.978 24.621L367.029 24.9649L367.075 25.2888L367.121 25.6128L367.193 25.9118L367.29 26.2109L367.382 26.5149L367.5 26.794L367.617 27.0681L367.761 27.3223L367.904 27.5765L368.072 27.8107L368.236 28.0151L368.425 28.2493L368.64 28.4337L368.829 28.6181L369.069 28.8025L369.305 28.962L369.54 29.1265L369.801 29.2611L370.061 29.4006L370.327 29.5202L370.634 29.6349L370.915 29.7246L371.227 29.7943L371.559 29.8641L371.892 29.9339L372.224 29.9837H372.577L372.935 30.0087H373.671L374.029 29.9837H374.382L374.714 29.9339L375.046 29.8641L375.379 29.7943L375.686 29.7046L375.972 29.6099L376.258 29.5202L376.545 29.3807L376.805 29.2611L377.066 29.1066L377.301 28.962L377.536 28.7826L377.777 28.6181L377.986 28.4088L378.181 28.2244L378.37 27.9951L378.533 27.7858L378.702 27.5565L378.866 27.2974L378.983 27.0482L379.127 26.7691L379.244 26.49L379.341 26.2109L379.433 25.9118L379.51 25.5879L379.556 25.2689L379.602 24.9449L379.648 24.596V24.2472V23.9232ZM375.875 23.9232V24.2222V24.5711V24.8951L375.829 25.219L375.757 25.538L375.66 25.862L375.563 26.166L375.425 26.465L375.282 26.7192L375.092 26.9734L374.878 27.2027L374.637 27.3921L374.499 27.4569L374.356 27.5266L374.213 27.5964L374.049 27.6413L373.881 27.6911L373.717 27.716H373.528H373.144H372.955L372.787 27.6911L372.623 27.6413L372.48 27.5964L372.337 27.5266L372.193 27.4569L372.055 27.3671L371.815 27.1827L371.559 26.9136L371.391 26.6594L371.227 26.4052L371.084 26.1062L370.987 25.8072L370.89 25.4832L370.823 25.1592L370.772 24.8353L370.726 24.5113V24.1874V23.5743V23.2753L370.772 22.9513L370.823 22.6024L370.89 22.2785L370.966 21.9794L371.084 21.6555L371.227 21.3764L371.365 21.1023L371.559 20.8481L371.769 20.6138L372.009 20.4294L372.127 20.3397L372.27 20.2699L372.413 20.2002L372.577 20.1553L372.741 20.1055H372.909H373.098H373.482H373.671H373.835L374.003 20.1553L374.167 20.2002L374.31 20.2699L374.453 20.3397L374.591 20.4294L374.832 20.6138L375.046 20.8232L375.236 21.0773L375.379 21.3564L375.517 21.6306L375.614 21.9346L375.711 22.2585L375.783 22.5775L375.829 22.9015V23.2504V23.5743V23.9232H375.875Z" fill="#26145F"/>
<path fill-rule="evenodd" clip-rule="evenodd" d="M12.6709 34.7335L13.0492 35.7801L13.5043 36.747L14.0462 37.674L14.6649 38.5512L15.3552 39.3835L16.1119 40.1461L16.9657 40.8389L17.8707 41.4868L18.8166 42.0649L19.8392 42.5932L20.9027 43.0567L22.0225 43.4505L23.1626 43.7744L24.3693 44.0286L25.6015 44.213L26.8593 44.3277L28.1427 44.3526L29.472 44.3277L30.8014 44.213L32.1308 44.0286L33.5062 43.7495L34.856 43.4006L36.2109 42.962L37.5863 42.4587L38.9361 41.8556L40.291 41.1628L41.6204 40.3753L42.9242 39.4982L44.2076 38.5512L45.4858 37.4846L46.6976 36.3333L47.9093 35.0823L46.672 36.6324L45.3682 38.0877L43.9928 39.4284L42.5459 40.6744L41.0733 41.8107L39.5343 42.8474L37.9646 43.7944L36.3745 44.6317L34.7384 45.3693L33.1022 45.9923L31.4405 46.5455L29.7788 46.9841L28.1171 47.3081L26.4554 47.5623L24.8192 47.6769L23.1831 47.7267L21.593 47.657L20.0284 47.4975L18.4843 47.2383L17.0118 46.8695L15.5648 46.411L14.215 45.8528L12.8856 45.1849L11.6534 44.4223L10.4876 43.5651L9.42414 42.5932L8.44756 41.5316L7.54768 40.3753L6.7654 39.1244L6.07515 37.7637L5.52807 36.3084L5.07812 34.7335H12.6709Z" fill="#F8C300"/>
<path fill-rule="evenodd" clip-rule="evenodd" d="M53.7211 13.5216H46.1999L46.1744 12.3653L46.0568 11.2788L45.7704 10.262L45.4177 9.29017L44.9166 8.41298L44.3235 7.58066L43.6332 6.8181L42.8305 6.12533L41.9511 5.52227L41.0001 4.96904L39.9826 4.50553L38.868 4.09186L37.7022 3.7679L36.47 3.53365L35.1866 3.34924L33.8828 3.27947L32.5074 3.25953L31.1065 3.32931L29.6851 3.4888L28.2126 3.72304L26.74 4.047L25.2675 4.46068L23.7745 4.94412L22.2815 5.52227L20.809 6.21504L19.3365 6.98258L17.8691 7.83484L16.4425 8.7818L15.0416 9.82345L13.6662 10.9548L12.3368 12.2008L11.0586 13.5216L12.3624 11.9018L13.7378 10.4016L15.2103 8.99113L16.7289 7.67535L18.319 6.46922L19.9807 5.36278L21.6629 4.37096L23.3962 3.46886L25.1294 2.65647L26.9088 1.96369L28.6881 1.38555L30.4674 0.902103L32.2467 0.508367L34.0004 0.229264L35.7593 0.0697759L37.467 0L39.1287 0.044856L40.7393 0.184408L42.309 0.438592L43.802 0.807407L45.2234 1.27092L46.5783 1.82414L47.8361 2.51692L48.9967 3.30439L50.0398 4.20649L50.9652 5.19831L51.7986 6.30974L52.4633 7.5358L53.0053 8.87649L53.4092 10.3069L53.6495 11.8569L53.7211 13.5216Z" fill="#007A37"/>
<path fill-rule="evenodd" clip-rule="evenodd" d="M38.6744 13.5216H46.2007L45.1781 24.292V24.6608V25.0047L45.2292 25.3536L45.3212 25.6776L45.4644 26.0015L45.6331 26.2806L45.8223 26.5547L46.0319 26.8089L46.2722 27.0432L46.5535 27.2475L46.8398 27.4319L47.1517 27.5715L47.484 27.711L47.8368 27.8057L48.2152 27.8506H48.5986H48.977L49.3553 27.8057L49.7133 27.711L50.0916 27.5715L50.424 27.4319L50.7563 27.2475L51.0631 27.0432L51.3494 26.8089L51.6102 26.5547L51.8454 26.2806L52.0601 26.0015L52.2493 25.6776L52.418 25.3536L52.5356 25.0047L52.6276 24.6608L52.6788 24.292L53.6758 13.5216H61.197L60.1744 24.2671V24.3568V24.92L60.0772 25.4483L59.9392 25.9816L59.8216 26.5099L59.6528 27.0083L59.4432 27.5067L59.2285 28.0051L58.9677 28.5035L58.7069 28.967L58.4206 29.4305L58.0883 29.889L57.7559 30.3077L57.398 30.7263L57.0452 31.14L56.6413 31.5338L56.2374 31.9026L55.8079 32.2514L55.3835 32.5754L54.9336 32.8944L54.4581 33.1934L53.9826 33.4725L53.4713 33.7267L52.96 33.956L52.4487 34.1902L51.9016 34.3746L51.3903 34.5391L50.8432 34.6787L50.2757 34.7933L49.7286 34.9079L49.1611 34.9528L48.5935 35.0026H48.0004H47.4533L46.9062 34.9777L46.3949 34.9079L45.8837 34.8132L45.3724 34.6986L44.8611 34.559L44.3498 34.3995L43.8743 34.2151L43.4243 34.0307L42.9488 33.8114L42.5244 33.5573L42.095 33.3031L41.691 33.029L41.3127 32.7249L40.9036 32.396L40.5457 32.0521L40.1878 31.7032L39.881 31.3344L39.5743 30.9656L39.2879 30.5718L39.0272 30.1532L38.792 29.7395L38.5517 29.3009L38.3472 28.8673L38.204 28.4088L38.0353 27.9453L37.9177 27.4469L37.8001 26.9485L37.7285 26.4501L37.6825 25.9517V25.4533V24.9549L37.7285 24.307L37.8256 23.2005L37.9177 21.9745L38.0404 20.7733L38.158 19.5472L38.25 18.3461L38.3472 17.1499L38.4648 15.9488L38.5568 14.7227L38.6744 13.5216ZM13.6209 19.9709L13.4062 20.868L13.171 21.7701L12.9818 22.6971L12.7824 23.5992L12.5932 24.5213L12.45 25.4682L12.3171 26.4152L12.22 27.3372L12.1484 28.2842L12.1024 29.2361V30.1582V31.0852L12.1688 32.0272L12.3171 32.8944L12.3887 33.3579L12.4552 33.8214L12.5779 34.2799L12.6699 34.7185H5.07716L5.00558 34.3298L4.934 33.9161L4.86242 33.4974L4.79595 33.0788L4.72437 32.2016L4.67324 31.3244V30.4373V29.5152L4.71926 28.5882L4.79084 27.6413L4.88798 26.6943L5.00558 25.7473L5.14875 24.7755L5.29191 23.7787L5.62425 21.8847L5.98216 19.9709H0L1.14019 13.5216H20.8353L20.1195 17.6583L20.3598 17.3393L20.6205 17.0154L20.9069 16.7114L21.1881 16.3874L21.4744 16.0884L21.7607 15.8142L22.0675 15.5102L22.3999 15.2361L22.7066 14.9819L23.039 14.7277L23.3969 14.4735L23.7292 14.2194L24.082 13.9851L24.4399 13.7758L24.8183 13.5714L25.2018 13.3621L25.5801 13.1777L25.9585 12.9933L26.3368 12.8288L26.7408 12.6693L27.1447 12.5298L27.5486 12.3902L27.9525 12.2507L28.3769 12.161L28.8064 12.0463L29.2103 11.9766L29.6347 11.8819L30.0897 11.837L30.5141 11.7921L30.9436 11.7423H31.3935H31.8435H32.6002L33.362 11.8121L34.0983 11.9068L34.809 12.0463L35.5197 12.2307L36.1844 12.4351L36.8491 12.6943L37.4882 12.9933L36.8951 19.4376L36.6854 19.2283L36.4451 19.0189L36.1844 18.8345L35.9492 18.6501L35.6629 18.4906L35.4021 18.3262L35.1158 18.1916L34.809 18.052L34.5022 17.9324L34.1903 17.8427L33.8835 17.748L33.5512 17.6782L33.2342 17.6334L32.9019 17.5885H32.544H32.1912H31.8333H31.4805L31.1226 17.6334L30.7646 17.6782L30.4119 17.7729L30.0795 17.8676L29.7216 17.9574L29.3893 18.072L29.0825 18.2115L28.7501 18.376L28.4434 18.5355L28.157 18.7L27.8503 18.8844L27.5639 19.0887L27.3032 19.298L27.0169 19.5273L26.7817 19.7616L26.5209 19.9908L26.2806 20.245L26.071 20.5241L25.8562 20.7982L25.667 21.0773L25.4779 21.3564L25.3091 21.6555L25.166 21.9545L25.0228 22.2785L24.9052 22.6024L24.7876 22.9264L24.6905 23.2504L24.6189 23.5992L24.5422 23.9232L24.4962 24.2472V24.596V25.2888L24.5473 25.6128L24.5933 25.9367L24.6649 26.2607L24.7365 26.5797L24.8285 26.8837L24.9461 27.1827L25.0688 27.4618L25.212 27.736L25.3756 28.0151L25.5443 28.2942L25.7335 28.5483L25.9431 28.7776L26.1579 29.0069L26.3726 29.2361L26.6078 29.4455L26.8481 29.6548L27.1089 29.8392L27.3952 30.0037L27.6764 30.1632L27.9627 30.3276L28.2695 30.4622L28.5814 30.5818L28.8882 30.6715L29.2205 30.7662L29.5529 30.8559L29.8852 30.9008L30.238 30.9506H30.5959H31.4498L31.9611 30.9058L32.4315 30.8161L32.907 30.7214L33.3569 30.5818L33.812 30.4223L34.2568 30.2529L34.6812 30.0435L35.0851 29.8143L35.489 29.5402L35.8674 29.2561L36.2253 28.957L36.5576 28.6331L36.89 28.2892L37.1712 27.9204L37.4575 27.5266L36.7724 34.8531L36.3684 35.0824L35.9645 35.3116L35.535 35.501L35.1107 35.6854L34.6607 35.8698L34.2312 36.0293L33.7813 36.1689L33.3314 36.3084L32.8763 36.4231L32.4059 36.5177L31.9304 36.6075L31.4805 36.6772L30.9692 36.747L30.4937 36.7919L30.0233 36.8168H29.5478L28.8575 36.7919L28.1928 36.747L27.5537 36.6772L26.9146 36.5626L26.2959 36.4231L25.6773 36.2636L25.0842 36.0542L24.5166 35.82L23.9491 35.5907L23.402 35.3116L22.8907 35.0176L22.3794 34.6687L21.909 34.3198L21.4335 33.951L20.9631 33.5573L20.5643 33.1436L20.1604 32.705L19.782 32.2664L19.4497 31.768L19.1122 31.2696L18.831 30.7712L18.5702 30.2379L18.3095 29.7046L18.0947 29.1514L17.926 28.5733L17.7624 27.9951L17.655 27.412L17.5579 26.8139L17.5119 26.1909V25.5679V24.92L17.563 24.2721L17.609 23.7189L17.701 23.1606L17.8238 22.6074L17.9618 22.0791L18.1305 21.5458L18.3197 21.0125L18.5345 20.4793L18.7492 19.9809L13.6209 19.9709Z" fill="#26145F"/>
</svg>
