<svg width="127" height="40" viewBox="0 0 127 40" fill="none" xmlns="http://www.w3.org/2000/svg">
<path d="M19.8983 40C8.90878 40 0 31.0457 0 20C0 8.95431 8.90878 0 19.8983 0C27.7331 0 34.5102 4.55116 37.7556 11.1667L32.7128 13.3333C30.3114 8.67961 25.4743 5.5 19.8983 5.5C11.9309 5.5 5.47204 11.9919 5.47204 20C5.47204 28.0081 11.9309 34.5 19.8983 34.5C25.4175 34.5 30.2128 31.3848 32.6387 26.8083L37.7145 28.9167C34.4532 35.487 27.7001 40 19.8983 40Z" fill="#048D4F"/>
<path fill-rule="evenodd" clip-rule="evenodd" d="M82.2464 20C82.2464 31.0457 73.3376 40 62.3481 40C51.3585 40 42.4497 31.0457 42.4497 20C42.4497 8.95431 51.3585 0 62.3481 0C73.3376 0 82.2464 8.95431 82.2464 20ZM62.3481 34.5C70.3155 34.5 76.7743 28.0081 76.7743 20C76.7743 11.9919 70.3155 5.5 62.3481 5.5C54.3806 5.5 47.9218 11.9919 47.9218 20C47.9218 28.0081 54.3806 34.5 62.3481 34.5Z" fill="#FECB29"/>
<path d="M107.451 40C96.4614 40 87.5526 31.0457 87.5526 20C87.5526 8.95431 96.4614 0 107.451 0C117.165 0 125.254 6.99677 127 16.25L109.026 23.75L106.953 18.8333L120.244 13.2913C117.835 8.66047 113.01 5.5 107.451 5.5C99.4835 5.5 93.0246 11.9919 93.0246 20C93.0246 28.0081 99.4835 34.5 107.451 34.5C112.973 34.5 117.771 31.3815 120.195 26.801L125.267 28.9167C122.006 35.487 115.253 40 107.451 40Z" fill="#373770"/>
</svg>
