<svg width="109" height="49" viewBox="0 0 109 49" fill="none" xmlns="http://www.w3.org/2000/svg">
<path d="M19.875 39.75C11.2456 39.75 4.25 32.7544 4.25 24.125C4.25 15.4956 11.2456 8.5 19.875 8.5C26.0272 8.5 31.3489 12.0556 33.8973 17.224L29.9375 18.9167C28.0518 15.2809 24.2535 12.7969 19.875 12.7969C13.6186 12.7969 8.54688 17.8686 8.54688 24.125C8.54688 30.3813 13.6186 35.4531 19.875 35.4531C24.2089 35.4531 27.9744 33.0194 29.8793 29.444L33.865 31.0911C31.3041 36.2242 26.0013 39.75 19.875 39.75Z" fill="white"/>
<path fill-rule="evenodd" clip-rule="evenodd" d="M68.8333 24.125C68.8333 32.7544 61.8378 39.75 53.2083 39.75C44.5789 39.75 37.5833 32.7544 37.5833 24.125C37.5833 15.4956 44.5789 8.5 53.2083 8.5C61.8378 8.5 68.8333 15.4956 68.8333 24.125ZM53.2083 35.4531C59.4647 35.4531 64.5365 30.3813 64.5365 24.125C64.5365 17.8686 59.4647 12.7969 53.2083 12.7969C46.952 12.7969 41.8802 17.8686 41.8802 24.125C41.8802 30.3813 46.952 35.4531 53.2083 35.4531Z" fill="#FECB29"/>
<path d="M88.625 39.75C79.9955 39.75 73 32.7544 73 24.125C73 15.4956 79.9955 8.5 88.625 8.5C96.2531 8.5 102.604 13.9662 103.976 21.1953L89.862 27.0547L88.2344 23.2135L98.6703 18.8838C96.7789 15.266 92.9903 12.7969 88.625 12.7969C82.3686 12.7969 77.2969 17.8686 77.2969 24.125C77.2969 30.3813 82.3686 35.4531 88.625 35.4531C92.9612 35.4531 96.7284 33.0168 98.6323 29.4383L102.615 31.0911C100.054 36.2242 94.7513 39.75 88.625 39.75Z" fill="#048D4F"/>
</svg>
