<svg width="17" height="17" viewBox="0 0 17 17" fill="none" xmlns="http://www.w3.org/2000/svg">
<path d="M16.44 8.53687C16.515 8.35687 16.515 8.14687 16.44 7.96687C16.4025 7.87687 16.35 7.79437 16.275 7.71937L8.775 0.219375C8.4825 -0.073125 8.01 -0.073125 7.7175 0.219375C7.425 0.511875 7.425 0.984375 7.7175 1.27687L13.9425 7.50187H0.75C0.3375 7.50187 0 7.83937 0 8.25187C0 8.66437 0.3375 9.00187 0.75 9.00187H13.9425L7.725 15.2194C7.4325 15.5119 7.4325 15.9844 7.725 16.2769C7.8675 16.4269 8.055 16.5019 8.25 16.5019C8.445 16.5019 8.6325 16.4269 8.7825 16.2844L16.2825 8.78437C16.35 8.71687 16.4025 8.62687 16.44 8.53687Z" fill="#3A71C7"/>
</svg>
