<svg width="20" height="20" viewBox="0 0 20 20" fill="none" xmlns="http://www.w3.org/2000/svg">
<path d="M17 11.1251C16.6563 11.1251 16.375 11.4064 16.375 11.7501V15.2376C16.375 15.8626 15.8625 16.3751 15.2375 16.3751H4.7625C4.1375 16.3751 3.625 15.8626 3.625 15.2376V4.76262C3.625 4.13762 4.1375 3.62512 4.7625 3.62512H8.25C8.59375 3.62512 8.875 3.34387 8.875 3.00012C8.875 2.65637 8.59375 2.37512 8.25 2.37512H4.7625C3.44375 2.37512 2.375 3.44387 2.375 4.76262V15.2376C2.375 16.5564 3.44375 17.6251 4.7625 17.6251H15.2375C16.5562 17.6251 17.625 16.5564 17.625 15.2376V11.7501C17.625 11.4064 17.3438 11.1251 17 11.1251Z" fill="#3A71C7"/>
<path d="M17 2.37512H11.75C11.4062 2.37512 11.125 2.65637 11.125 3.00012C11.125 3.34387 11.4062 3.62512 11.75 3.62512H15.4937L9.5625 9.55637C9.31875 9.80012 9.31875 10.1939 9.5625 10.4376C9.68125 10.5626 9.8375 10.6251 10 10.6251C10.1625 10.6251 10.3187 10.5626 10.4437 10.4439L16.375 4.51262V8.25637C16.375 8.60012 16.6563 8.88137 17 8.88137C17.3438 8.88137 17.625 8.60012 17.625 8.25637V3.00012C17.625 2.65637 17.3438 2.37512 17 2.37512Z" fill="#3A71C7"/>
</svg>
