<svg xmlns="http://www.w3.org/2000/svg" width="618" height="388" fill="none"><path fill="#F8E1CC" d="M494.112 362.56c0 8.486-84.322 15.367-188.341 15.367-104.017 0-188.339-6.881-188.339-15.367 0-8.487 84.322-15.368 188.339-15.368 104.019 0 188.341 6.881 188.341 15.368Z"/><path fill="#E3E0F3" d="M469.133 299.888c0 33.832-27.426 61.257-61.256 61.257-33.831 0-61.256-27.425-61.256-61.257 0-33.831 27.425-61.256 61.256-61.256 33.83 0 61.256 27.425 61.256 61.256Z"/><path fill="#C5BEE5" d="M435.166 245.109a60.773 60.773 0 0 0-11.819-4.468c-7.828 31.985-36.682 55.72-71.08 55.72a73.61 73.61 0 0 1-5.64-.215l-.006.072.302 10.759.022.174c4.76.972 10.64 1.416 15.686 1.416 37.12 0 67.783-27.638 72.535-63.458Z"/><path fill="#C5BEE5" d="M387.941 342.678c40.332 0 73.043-32.776 73.173-73.08a61.51 61.51 0 0 0-10.362-13.447c.002.334-.001.814-.001 1.145 0 40.413-32.763 73.174-73.176 73.174a73.049 73.049 0 0 1-25.087-4.413c.008.015.013.03.02.045l6.382 10.561.026.032c8.899 3.849 18.712 5.983 29.025 5.983Z"/><path fill="#2F2F66" d="M407.877 239.086c-33.527 0-60.803 27.275-60.803 60.802s27.276 60.804 60.803 60.804 60.803-27.277 60.803-60.804-27.276-60.802-60.803-60.802Zm0 122.512c-34.026 0-61.709-27.683-61.709-61.71 0-34.025 27.683-61.708 61.709-61.708s61.709 27.683 61.709 61.708c0 34.027-27.683 61.71-61.709 61.71Z"/><path fill="#2F2F66" d="M352.389 296.814c-1.888 0-3.8-.072-5.682-.215a.453.453 0 1 1 .069-.904c1.86.142 3.748.214 5.613.214 33.616 0 62.664-22.773 70.642-55.379a.451.451 0 1 1 .879.215c-8.076 33.012-37.487 56.069-71.521 56.069Z"/><path fill="#2F2F66" d="M362.751 309.021c-5.599 0-11.356-.521-15.795-1.429a.455.455 0 0 1-.352-.536.452.452 0 0 1 .534-.352c4.381.897 10.072 1.411 15.613 1.411 36.333 0 67.323-27.117 72.088-63.079a.453.453 0 0 1 .898.119c-4.824 36.41-36.201 63.866-72.986 63.866Z"/><path fill="#2F2F66" d="M377.574 330.924c-8.677 0-17.173-1.495-25.251-4.444a.454.454 0 0 1 .311-.851c7.978 2.912 16.368 4.389 24.94 4.389 40.1 0 72.723-32.623 72.723-72.722l.001-.359c.001-.271.002-.569-.001-.795a.452.452 0 0 1 .447-.459h.006c.247 0 .449.199.453.446.003.231.002.534.001.812l-.001.355c0 40.598-33.03 73.628-73.629 73.628Z"/><path fill="#2F2F66" d="M387.94 343.131c-10.149 0-19.977-2.027-29.212-6.023a.452.452 0 0 1-.235-.595.45.45 0 0 1 .595-.236c9.121 3.947 18.827 5.948 28.852 5.948 39.989 0 72.612-32.596 72.721-72.661a.453.453 0 0 1 .453-.452h.001c.25.001.453.204.452.454-.111 40.563-33.14 73.565-73.627 73.565Z"/><path fill="#C5BEE5" d="M384.908 326.791H227.084V46.295h157.824V326.79Z"/><path fill="#E3E0F3" d="M338.666 46.295 227.084 157.877v-30.328l81.254-81.254h30.328ZM384.941 114.353 227.084 272.211v-21.458L384.908 92.929l.033 21.424ZM260.446 326.791l124.463-124.462v30.326l-94.134 94.136h-30.329Z"/><path fill="#F79045" d="M384.909 326.791H227.085V46.295h157.824V326.79ZM372.7 10.526H239.294c-11.851 0-21.456 9.606-21.456 21.455v309.123c0 11.849 9.605 21.456 21.456 21.456H372.7c11.849 0 21.455-9.607 21.455-21.456V31.981c0-11.85-9.606-21.455-21.455-21.455Z"/><path fill="#F25443" d="M316.727 344.714c0 5.926-4.805 10.729-10.731 10.729s-10.73-4.803-10.73-10.729c0-5.927 4.804-10.732 10.73-10.732s10.731 4.805 10.731 10.732ZM320.157 30.972h-28.326a1.59 1.59 0 1 1 0-3.18h28.326a1.59 1.59 0 1 1 0 3.18ZM281.881 29.383a2.94 2.94 0 1 1-5.88 0 2.94 2.94 0 0 1 5.88 0ZM307.779 20.245a1.785 1.785 0 1 1-3.57 0 1.785 1.785 0 0 1 3.57 0Z"/><path fill="#2F2F66" d="M305.996 334.435c-5.666 0-10.278 4.611-10.278 10.279 0 5.667 4.612 10.277 10.278 10.277 5.668 0 10.278-4.61 10.278-10.277 0-5.668-4.61-10.279-10.278-10.279Zm0 21.461c-6.167 0-11.184-5.016-11.184-11.182 0-6.168 5.017-11.184 11.184-11.184 6.167 0 11.184 5.016 11.184 11.184 0 6.166-5.017 11.182-11.184 11.182Z"/><path fill="#2F2F66" d="M227.537 326.338h156.918V46.748H227.537v279.59Zm157.371.906H227.084a.453.453 0 0 1-.453-.453V46.295c0-.25.203-.453.453-.453h157.824c.25 0 .453.203.453.453V326.79c0 .25-.203.453-.453.453ZM239.294 10.979c-11.582 0-21.003 9.422-21.003 21.002v309.124c0 11.58 9.421 21.002 21.003 21.002H372.7c11.581 0 21.002-9.422 21.002-21.002V31.981c0-11.58-9.421-21.002-21.002-21.002H239.294ZM372.7 363.013H239.294c-12.081 0-21.909-9.829-21.909-21.908V31.981c0-12.08 9.828-21.908 21.909-21.908H372.7c12.08 0 21.908 9.829 21.908 21.908v309.124c0 12.079-9.828 21.908-21.908 21.908Z"/><path fill="#2F2F66" d="M291.831 28.245a1.138 1.138 0 0 0 0 2.274h28.326a1.138 1.138 0 0 0 0-2.274h-28.326Zm28.326 3.18h-28.326a2.045 2.045 0 0 1-2.043-2.043c0-1.126.916-2.043 2.043-2.043h28.326c1.126 0 2.043.917 2.043 2.043a2.046 2.046 0 0 1-2.043 2.043ZM278.941 26.895a2.489 2.489 0 0 0-2.486 2.487 2.489 2.489 0 0 0 2.486 2.486 2.489 2.489 0 0 0 2.487-2.486 2.49 2.49 0 0 0-2.487-2.487Zm0 5.88a3.396 3.396 0 0 1-3.392-3.393 3.396 3.396 0 0 1 3.392-3.393 3.396 3.396 0 0 1 3.393 3.393 3.396 3.396 0 0 1-3.393 3.392ZM305.994 18.913a1.333 1.333 0 0 0 0 2.665 1.333 1.333 0 0 0 0-2.664Zm0 3.57a2.24 2.24 0 0 1-2.237-2.238 2.24 2.24 0 0 1 2.237-2.238 2.24 2.24 0 0 1 2.238 2.238 2.24 2.24 0 0 1-2.238 2.238ZM261.539 326.338h29.048l93.868-93.87v-29.046L261.539 326.338Zm29.235.906h-30.328a.455.455 0 0 1-.419-.28.455.455 0 0 1 .099-.493l124.462-124.463a.453.453 0 0 1 .773.321v30.326a.453.453 0 0 1-.133.321l-94.134 94.135a.451.451 0 0 1-.32.133ZM227.537 127.737v29.047L337.573 46.748h-29.048l-80.988 80.989Zm-.453 30.593a.452.452 0 0 1-.453-.453V127.55c0-.12.048-.235.132-.32l81.255-81.255a.452.452 0 0 1 .32-.133h30.328c.183 0 .349.111.419.28.069.17.03.364-.099.494L227.405 158.198a.453.453 0 0 1-.321.132ZM227.537 250.941v20.177l156.951-156.952-.031-20.145-156.92 156.92Zm-.453 21.723a.452.452 0 0 1-.453-.453v-21.458c0-.12.048-.235.132-.32L384.587 92.61a.451.451 0 0 1 .774.319l.033 21.424a.453.453 0 0 1-.133.321L227.405 272.532a.453.453 0 0 1-.321.132ZM307.965 142.217c-1.077 0-1.806-.149-1.887-.166a.452.452 0 0 1 .189-.886c.051.012 5.038 1.009 8.462-2.633a.453.453 0 1 1 .66.62c-2.43 2.586-5.488 3.065-7.424 3.065ZM306.692 129.197c-1.136 0-1.952-.366-2.434-1.093-1.534-2.318 1.2-7.382 1.517-7.951a.452.452 0 0 1 .616-.176.455.455 0 0 1 .176.617c-.787 1.414-2.598 5.432-1.553 7.01.368.555 1.12.775 2.232.657a.452.452 0 1 1 .096.9 6.18 6.18 0 0 1-.65.036ZM319.083 116.336a1.493 1.493 0 1 1-2.987.001 1.493 1.493 0 0 1 2.987-.001ZM296.482 116.336a1.493 1.493 0 1 1-2.987.001 1.493 1.493 0 0 1 2.987-.001Z"/><path fill="#fff" d="M275.036 116.418s10.711-7.988 12.209-15.408c0 0 25.314 16.776 38.514 2.502 0 0 6.318 11.248 11.201 12.9l-.09-.006c-1.224 19.214-14.599 34.347-30.918 34.347-16.316 0-29.688-15.127-30.916-34.335Z"/><path fill="#F79045" d="M114.016 140.684a3.92 3.92 0 0 0 2.888-4.711l-4.365-18.203a3.92 3.92 0 0 0-4.71-2.888 3.92 3.92 0 0 0-2.889 4.711l4.365 18.203a3.92 3.92 0 0 0 4.711 2.888Z"/><path fill="#F25443" d="M106.696 137.025a2.364 2.364 0 0 0 1.742-2.841l-2.633-10.979a2.362 2.362 0 0 0-2.841-1.742 2.364 2.364 0 0 0-1.742 2.841l2.633 10.979a2.363 2.363 0 0 0 2.841 1.742Z"/><path fill="#F79045" d="M157.029 130.369a3.919 3.919 0 0 0 2.888-4.711l-4.365-18.201a3.917 3.917 0 0 0-4.71-2.888 3.917 3.917 0 0 0-2.888 4.709l4.365 18.203a3.919 3.919 0 0 0 4.71 2.888ZM103.261 132.793a3.086 3.086 0 0 1-1.439-6.001l1.439 6.001Z"/><path fill="#F25443" d="M161.887 123.789a2.362 2.362 0 0 1-2.84-1.742l-2.634-10.978a2.364 2.364 0 0 1 1.743-2.842 2.362 2.362 0 0 1 2.84 1.743l2.633 10.978a2.362 2.362 0 0 1-1.742 2.841Z"/><path fill="#F79045" d="M163.036 118.46a3.086 3.086 0 0 0-1.439-6.001l1.439 6.001Z"/><path fill="#F25443" d="m137.9 124.486-22.46 5.386-1.439-6.001 11.788-2.826 11.091-2.66 12.531-3.006 1.44 6.001-7.303 1.751"/><path fill="#fff" d="M234.476 228.152c-8.621-9.311-10.592-19.719-10.722-26.835h-.001c-5.198 2.062-10.57 3.226-14.648 2.737-8.09-.97-17.249-9.301-23.633-14.395-20.98-15.173-39.339-44.419-42.27-49.215-.27-.443-.497-.91-.611-1.417-1.317-5.828 3.631-12.453.467-16.698-2.478-3.323-4.306.182-5.063 2.135l-11.644 2.792c2.59 6.391 6.744 10.255 9.04 12.019a4.751 4.751 0 0 1 1.845 3.295s6.055 42.132 36.781 72.425c22.746 22.427 36.61 22.812 60.459 13.158v-.001Z"/><path fill="#F79045" d="M244.937 223.629c-9.172-9.398-11.322-20.061-11.503-27.384l.001.003c-2.866 1.938-6.235 3.701-9.681 5.069.13 7.117 2.101 17.524 10.721 26.835v.001c3.283-1.329 6.753-2.848 10.462-4.525v.001Z"/><path fill="#fff" d="M294.801 148.42c-.069 4.043 2.928 15.342-5.425 20.2-.163.095-.331.188-.502.278 0 0 .901 10.813 17.122 20.564 16.221-9.751 17.123-20.564 17.123-20.564-8.974-4.693-5.857-16.356-5.927-20.478l-.064-.138c-3.455 1.597-7.209 2.471-11.132 2.471-3.924 0-7.676-.874-11.132-2.471l-.063.138Z"/><path fill="#F79045" d="M282.762 170.667c2.569 6.311 8.7 16.254 23.235 25.577 14.533-9.322 20.666-19.263 23.236-25.574-2.489-.309-4.497-.928-6.113-1.773 0 0-.901 10.813-17.122 20.565-16.222-9.752-17.123-20.565-17.123-20.565-1.615.845-3.624 1.464-6.113 1.773v-.003Z"/><path fill="#F25443" d="M355.023 218.081c4.29 1.99 8.286 3.85 12.039 5.547v.001c9.173-9.398 11.322-20.062 11.504-27.385l-.002.003a34.045 34.045 0 0 1-3.76-2.915l-.001.002c-6.769-5.99-11.052-9.934-17.841-14.125l-.34-.23c-7.706-4.971-17.387-7.478-26.225-8.191a30.092 30.092 0 0 1-1.16-.118c-2.57 6.311-8.703 16.252-23.235 25.574-14.536-9.322-20.666-19.266-23.236-25.576v.002c-.375.046-.762.085-1.16.118-8.838.713-18.519 3.22-26.225 8.191l-.34.23c-6.79 4.191-11.071 8.135-17.839 14.125l-.001-.002a34.36 34.36 0 0 1-3.762 2.915l-.001-.003c.182 7.323 2.33 17.987 11.504 27.385v-.001c3.752-1.697 7.748-3.557 12.039-5.547 1.866 10.127 11.173 67.062-6.885 108.71h111.812c-18.059-41.648-8.751-98.583-6.885-108.71Z"/><path fill="#F79045" d="M367.062 223.629c9.173-9.398 11.322-20.061 11.504-27.384l-.002.003c2.865 1.938 6.235 3.701 9.682 5.069-.131 7.117-2.101 17.524-10.723 26.835v.001c-3.281-1.329-6.752-2.848-10.461-4.525v.001ZM497.979 140.684a3.918 3.918 0 0 1-2.887-4.711l4.365-18.203a3.92 3.92 0 0 1 4.71-2.888 3.92 3.92 0 0 1 2.889 4.711l-4.365 18.203a3.92 3.92 0 0 1-4.712 2.888Z"/><path fill="#F25443" d="M505.297 137.025a2.364 2.364 0 0 1-1.741-2.841l2.633-10.979a2.361 2.361 0 0 1 2.841-1.742 2.363 2.363 0 0 1 1.741 2.841l-2.633 10.979a2.363 2.363 0 0 1-2.841 1.742Z"/><path fill="#F79045" d="M454.972 130.369a3.92 3.92 0 0 1-2.889-4.711l4.365-18.201c.5-2.09 2.62-3.39 4.71-2.888a3.918 3.918 0 0 1 2.888 4.709l-4.364 18.203a3.92 3.92 0 0 1-4.71 2.888ZM508.734 132.793a3.085 3.085 0 1 0 1.439-6.001l-1.439 6.001Z"/><path fill="#F25443" d="M450.113 123.789a2.363 2.363 0 0 0 2.84-1.742l2.633-10.978a2.363 2.363 0 0 0-1.742-2.842 2.363 2.363 0 0 0-2.841 1.743l-2.632 10.978a2.362 2.362 0 0 0 1.742 2.841Z"/><path fill="#F79045" d="M448.964 118.46a3.086 3.086 0 0 1 1.44-6.001l-1.44 6.001Z"/><path fill="#fff" d="M136.884 118.385c-.386-2.032-2.538-3.34-6.801-2.706-4.263.635-6.192 3.611-3.729 5.982l.025.027c3.401 3.553 6.978 3.162 9.416 1.084 1.045-.892 1.312-2.494 1.091-4.387"/><path fill="#2F2F66" d="M325.805 103.512s6.318 11.248 11.202 12.901c0 0 .713-4.336 2.079-9.881 1.364-5.545-.558-9.82-2.66-12.421 0 0 7.281-9.433 1.203-17.805-6.079-8.372-14.515-8.28-22.098-5.218-7.583 3.062-13.494 2.579-10.409-4.39 0 0-10.005.636-21.258 18.156 0 0-6.861 5.732-9.635 13.013-2.773 7.28.51 14.617.852 18.551 0 0 10.711-7.988 12.211-15.408 0 0 25.313 16.777 38.513 2.502Z"/><path fill="#F25443" d="m474.095 124.486 22.46 5.386 1.439-6.001-11.789-2.826-11.091-2.66-12.531-3.006-1.439 6.001 7.302 1.751"/><path fill="#fff" d="m486.204 121.045-11.091-2.66c.386-2.032 2.538-3.34 6.801-2.706 4.263.635 6.191 3.611 3.729 5.982l-.025.027c-3.4 3.553-6.978 3.162-9.417 1.084-1.044-.892-1.31-2.494-1.09-4.387"/><path fill="#fff" d="M377.521 228.152c8.621-9.311 10.592-19.719 10.722-26.836l.006-.018c5.212 2.075 10.603 3.246 14.693 2.756 8.09-.97 17.248-9.301 23.632-14.395 20.98-15.173 39.341-44.419 42.27-49.215.27-.443.498-.91.612-1.417 1.235-5.463-3.038-11.628-.968-15.875a5.16 5.16 0 0 1 .501-.823c2.548-3.417 4.409.384 5.124 2.295l11.583 2.632c-2.591 6.391-6.744 10.255-9.041 12.019a4.759 4.759 0 0 0-1.845 3.295s-6.054 42.132-36.779 72.425c-22.761 22.44-36.628 22.813-60.504 13.139l-.006.018Z"/><path fill="#2F2F66" d="M307.965 142.217c-1.077 0-1.806-.149-1.887-.166a.452.452 0 0 1 .189-.886c.051.012 5.038 1.009 8.462-2.633a.453.453 0 1 1 .66.62c-2.43 2.586-5.488 3.065-7.424 3.065ZM306.692 129.197c-1.136 0-1.952-.366-2.434-1.093-1.534-2.318 1.2-7.382 1.517-7.951a.452.452 0 0 1 .616-.176.455.455 0 0 1 .176.617c-.787 1.414-2.598 5.432-1.553 7.01.368.555 1.12.775 2.232.657a.452.452 0 1 1 .096.9 6.18 6.18 0 0 1-.65.036ZM319.083 116.336a1.493 1.493 0 1 1-2.987.001 1.493 1.493 0 0 1 2.987-.001ZM296.482 116.336a1.493 1.493 0 1 1-2.987.001 1.493 1.493 0 0 1 2.987-.001Z"/><path fill="#2F2F66" d="M305.999 151.206c-16.344 0-30.123-15.268-31.369-34.759l.905-.058c1.215 19.015 14.597 33.911 30.464 33.911 15.873 0 29.254-14.9 30.465-33.923l.904.058c-1.241 19.498-15.02 34.771-31.369 34.771ZM402.052 234.671c-12.348 0-25.829-6.254-45.729-15.485-2.736-1.27-5.595-2.595-8.588-3.97a.449.449 0 0 1-.222-.599.45.45 0 0 1 .6-.223c2.993 1.374 5.853 2.7 8.591 3.97 38.211 17.725 52.505 24.36 80.957-3.691 30.258-29.832 36.589-71.746 36.649-72.167a5.227 5.227 0 0 1 2.019-3.589c2.224-1.71 6.338-5.521 8.896-11.831a.452.452 0 1 1 .84.34c-2.639 6.509-6.887 10.443-9.184 12.209a4.325 4.325 0 0 0-1.672 2.982c-.063.442-6.431 42.649-36.912 72.702-14.009 13.811-24.626 19.352-36.245 19.352Z"/><path fill="#2F2F66" d="M361.905 327.244H250.093a.456.456 0 0 1-.416-.634c17.926-41.34 8.855-97.59 6.855-108.447a.455.455 0 0 1 .363-.528.457.457 0 0 1 .529.364c1.997 10.847 11.022 66.819-6.644 108.339h110.439c-17.667-41.52-8.643-97.492-6.645-108.339a.456.456 0 0 1 .529-.364.455.455 0 0 1 .363.528c-2 10.857-11.07 67.107 6.855 108.447a.454.454 0 0 1-.416.634ZM400.888 204.62c-8.496.001-20.273-5.442-26.363-10.924a.161.161 0 0 1-.028-.024l-1.475-1.305c-5.837-5.176-10.053-8.915-16.303-12.772l-.357-.241c-6.872-4.434-16.111-7.317-26.007-8.115-4.985-.402-8.691-2.005-11.014-4.765-3.765-4.476-3.174-10.952-2.781-15.238.102-1.124.19-2.094.178-2.808a.453.453 0 0 1 .445-.461c.249-.02.456.194.461.444.013.763-.078 1.757-.183 2.907-.378 4.137-.949 10.387 2.573 14.572 2.161 2.569 5.658 4.064 10.394 4.446 10.042.809 19.43 3.744 26.434 8.262l.349.236c6.301 3.888 10.541 7.65 16.413 12.855l1.442 1.278c.012.009.023.017.035.028 6.442 5.819 19.415 11.607 27.733 10.61 6.908-.829 14.598-7.116 20.776-12.169.918-.75 1.797-1.467 2.629-2.13 20.762-15.018 38.767-43.534 42.165-49.099.289-.472.465-.878.557-1.28.564-2.497-.079-5.187-.7-7.788-.807-3.373-1.569-6.56.311-9.081.857-1.149 1.757-1.667 2.664-1.536 1.546.219 2.619 2.265 3.247 3.943.221.587.336 1.002.336 1.002a.452.452 0 1 1-.872.244c-.003-.009-.11-.391-.312-.928-.755-2.017-1.676-3.244-2.527-3.364-.555-.077-1.164.317-1.81 1.181-1.626 2.181-.912 5.167-.157 8.329.646 2.701 1.314 5.495.703 8.198-.112.501-.325.994-.668 1.553-3.413 5.59-21.503 34.241-42.39 49.347-.812.648-1.687 1.364-2.601 2.111-6.271 5.126-14.074 11.506-21.243 12.365-.658.08-1.344.117-2.054.117Z"/><path fill="#2F2F66" d="M468.447 123.584a.47.47 0 0 1-.105-.012l-7.303-1.751a.456.456 0 0 1-.335-.546l1.439-6.001a.451.451 0 0 1 .546-.335l12.53 3.005a.454.454 0 0 1-.21.881l-12.091-2.9-1.228 5.121 6.862 1.645a.452.452 0 0 1-.105.893ZM496.552 130.325a.47.47 0 0 1-.105-.012l-22.46-5.386a.454.454 0 0 1 .21-.882l22.02 5.281 1.227-5.12-11.347-2.721a.452.452 0 1 1 .21-.881l11.789 2.826a.453.453 0 0 1 .335.547l-1.439 6.001a.455.455 0 0 1-.44.347Z"/><path fill="#2F2F66" d="M503.257 115.227a3.459 3.459 0 0 0-3.358 2.649l-4.366 18.203a3.428 3.428 0 0 0 .418 2.608 3.43 3.43 0 0 0 2.135 1.556 3.458 3.458 0 0 0 4.164-2.554l4.366-18.202a3.458 3.458 0 0 0-3.359-4.26Zm-4.366 26.018c-.336 0-.677-.04-1.016-.121a4.326 4.326 0 0 1-2.696-1.963 4.33 4.33 0 0 1-.527-3.293l4.365-18.203a4.368 4.368 0 0 1 5.256-3.223 4.367 4.367 0 0 1 3.224 5.257l-4.365 18.202a4.37 4.37 0 0 1-4.241 3.344Z"/><path fill="#2F2F66" d="M508.482 121.851c-.347 0-.69.096-.994.283a1.889 1.889 0 0 0-.857 1.176l-2.633 10.98a1.891 1.891 0 0 0 .23 1.437c.268.434.685.74 1.177.857h.001a1.888 1.888 0 0 0 1.437-.231c.434-.266.739-.683.857-1.176l2.632-10.979a1.883 1.883 0 0 0-.23-1.437 1.892 1.892 0 0 0-1.62-.91Zm-2.632 15.692a2.79 2.79 0 0 1-2.394-1.343 2.792 2.792 0 0 1-.339-2.122l2.633-10.979a2.792 2.792 0 0 1 1.264-1.738 2.796 2.796 0 0 1 2.123-.338 2.789 2.789 0 0 1 1.738 1.264c.392.642.513 1.395.339 2.123l-2.633 10.979a2.795 2.795 0 0 1-1.265 1.737c-.45.276-.954.417-1.466.417ZM455.077 129.93a3.458 3.458 0 0 0 4.165-2.554l4.364-18.203a3.456 3.456 0 0 0-2.552-4.163 3.43 3.43 0 0 0-2.609.417 3.431 3.431 0 0 0-1.556 2.135l-4.365 18.203a3.459 3.459 0 0 0 2.553 4.165Zm.806 1.001a4.365 4.365 0 0 1-4.24-5.377l4.365-18.203a4.337 4.337 0 0 1 1.963-2.696 4.341 4.341 0 0 1 3.293-.527 4.367 4.367 0 0 1 3.224 5.257l-4.366 18.202a4.369 4.369 0 0 1-4.239 3.344Z"/><path fill="#2F2F66" d="M509.294 132.421a2.601 2.601 0 0 0 1.54-.383c.6-.368 1.02-.947 1.184-1.631a2.618 2.618 0 0 0-.315-1.99 2.608 2.608 0 0 0-1.199-1.04l-1.21 5.044Zm.171.912c-.277 0-.555-.033-.831-.099a.454.454 0 0 1-.335-.546l1.438-6.001a.459.459 0 0 1 .204-.281.457.457 0 0 1 .342-.054 3.522 3.522 0 0 1 2.192 1.592c.494.806.644 1.755.424 2.675a3.518 3.518 0 0 1-1.591 2.191 3.52 3.52 0 0 1-1.843.523ZM453.29 108.615c-.347 0-.689.096-.994.284-.435.267-.74.685-.858 1.177l-2.632 10.979a1.888 1.888 0 0 0 .23 1.437 1.89 1.89 0 0 0 1.177.857h.001a1.889 1.889 0 0 0 1.436-.23 1.89 1.89 0 0 0 .857-1.177l2.633-10.979a1.888 1.888 0 0 0-.23-1.437 1.89 1.89 0 0 0-1.62-.911Zm-2.633 15.694a2.8 2.8 0 0 1-2.394-1.343 2.798 2.798 0 0 1-.339-2.123l2.634-10.978a2.783 2.783 0 0 1 1.264-1.738 2.797 2.797 0 0 1 3.861.925c.392.641.512 1.395.338 2.123l-2.632 10.978a2.79 2.79 0 0 1-1.266 1.738 2.793 2.793 0 0 1-1.466.418Z"/><path fill="#2F2F66" d="M449.679 112.825c-.48 0-.953.133-1.372.39-.6.367-1.02.946-1.183 1.63a2.637 2.637 0 0 0 1.515 3.031l1.209-5.045a2.385 2.385 0 0 0-.169-.006Zm-.715 6.087a.457.457 0 0 1-.105-.012 3.545 3.545 0 0 1-2.617-4.267 3.522 3.522 0 0 1 1.592-2.191 3.51 3.51 0 0 1 2.674-.424.453.453 0 0 1 .336.546l-1.44 6.001a.45.45 0 0 1-.44.347ZM475.556 118.477c-.215 1.905.102 3.235.94 3.951 2.686 2.289 5.972 1.896 8.795-1.053.867-.837 1.161-1.709.888-2.562-.423-1.322-2.083-2.351-4.33-2.686-3.615-.537-5.905.317-6.291 2.343l-.002.007Zm4.704 6.318c-1.682 0-3.194-.69-4.351-1.679-1.089-.929-1.509-2.538-1.248-4.783a.551.551 0 0 1 .016-.075c.503-2.501 3.233-3.631 7.304-3.027 2.593.386 4.532 1.653 5.06 3.306.38 1.187-.005 2.412-1.083 3.451-1.941 2.029-3.915 2.807-5.698 2.807ZM377.516 228.604a.454.454 0 0 1-.334-.76c8.53-9.212 10.475-19.515 10.603-26.536a.452.452 0 0 1 .453-.445h.007c.251.005.45.211.446.461-.131 7.179-2.119 17.714-10.843 27.136a.453.453 0 0 1-.332.144ZM367.057 224.082a.453.453 0 0 1-.325-.77c9.077-9.298 11.197-19.858 11.376-27.079a.453.453 0 0 1 .453-.441h.012a.453.453 0 0 1 .441.465c-.184 7.382-2.352 18.18-11.634 27.688a.447.447 0 0 1-.323.137ZM209.944 234.671c-11.621 0-22.234-5.539-36.245-19.352-30.482-30.053-36.85-72.26-36.911-72.683a4.338 4.338 0 0 0-1.673-3.001c-2.297-1.766-6.545-5.7-9.184-12.209a.453.453 0 1 1 .839-.34c2.559 6.31 6.672 10.121 8.897 11.831a5.238 5.238 0 0 1 2.02 3.608c.059.402 6.389 42.316 36.647 72.148 28.449 28.049 42.747 21.417 80.958 3.69 2.738-1.27 5.596-2.596 8.59-3.969a.452.452 0 1 1 .379.822c-2.993 1.374-5.851 2.7-8.587 3.969-19.898 9.231-33.383 15.486-45.73 15.486Z"/><path fill="#2F2F66" d="M211.105 204.62a17.01 17.01 0 0 1-2.052-.117c-7.17-.859-14.973-7.239-21.243-12.365-.914-.747-1.79-1.463-2.618-2.125-20.861-15.084-38.959-43.742-42.375-49.333-.342-.56-.554-1.053-.667-1.553-.611-2.703.057-5.497.703-8.198.755-3.162 1.469-6.148-.157-8.329-.644-.863-1.246-1.259-1.809-1.181-.851.12-1.772 1.347-2.528 3.364-.201.537-.309.92-.312.928a.452.452 0 1 1-.872-.244s.116-.416.335-1.002c.629-1.678 1.703-3.724 3.249-3.943.913-.127 1.806.387 2.663 1.536 1.88 2.522 1.118 5.708.312 9.081-.622 2.601-1.264 5.292-.7 7.787.09.402.267.809.556 1.281 3.401 5.566 21.413 34.088 42.149 49.085.849.677 1.727 1.394 2.644 2.144 6.179 5.053 13.87 11.34 20.777 12.169 8.315.992 21.29-4.79 27.734-10.61.012-.011.024-.019.036-.029l1.437-1.273c5.872-5.208 10.115-8.97 16.433-12.869l.324-.22c7.012-4.524 16.401-7.459 26.443-8.268 4.735-.382 8.233-1.878 10.394-4.447 3.523-4.185 2.95-10.436 2.572-14.572-.105-1.15-.196-2.143-.183-2.905.005-.251.223-.459.461-.445.25.004.45.21.445.46-.012.714.076 1.684.18 2.807.392 4.286.983 10.763-2.782 15.239-2.323 2.76-6.028 4.364-11.015 4.766-9.896.798-19.134 3.681-26.015 8.12l-.332.225c-6.268 3.869-10.486 7.61-16.324 12.786l-1.47 1.302a.168.168 0 0 1-.029.024c-6.09 5.482-17.868 10.924-26.364 10.924Z"/><path fill="#2F2F66" d="M143.551 123.584a.454.454 0 0 1-.105-.893l6.861-1.645-1.228-5.121-12.091 2.9a.454.454 0 0 1-.211-.881l12.531-3.005a.455.455 0 0 1 .547.335l1.439 6.001a.455.455 0 0 1-.335.546l-7.302 1.751a.485.485 0 0 1-.106.012ZM115.44 130.325a.45.45 0 0 1-.441-.347l-1.439-6.001a.453.453 0 0 1 .335-.547l11.788-2.826a.454.454 0 0 1 .212.881l-11.348 2.721 1.228 5.12 22.019-5.281a.454.454 0 0 1 .212.882l-22.46 5.386a.479.479 0 0 1-.106.012Z"/><path fill="#2F2F66" d="M108.74 115.227a3.43 3.43 0 0 0-2.94 1.652 3.428 3.428 0 0 0-.418 2.608l4.365 18.202a3.456 3.456 0 0 0 4.164 2.554 3.459 3.459 0 0 0 2.553-4.164l-4.365-18.203a3.46 3.46 0 0 0-3.359-2.649Zm4.366 26.018a4.367 4.367 0 0 1-4.24-3.344l-4.365-18.202a4.326 4.326 0 0 1 .526-3.293 4.328 4.328 0 0 1 2.697-1.964 4.367 4.367 0 0 1 5.256 3.223l4.365 18.203a4.365 4.365 0 0 1-4.239 5.377Z"/><path fill="#2F2F66" d="M103.513 121.851a1.892 1.892 0 0 0-1.62.91 1.891 1.891 0 0 0-.23 1.437l2.633 10.979c.118.493.422.91.858 1.176.434.268.945.35 1.437.231.492-.117.91-.423 1.176-.857.267-.435.349-.945.231-1.437l-2.633-10.979a1.892 1.892 0 0 0-.857-1.177 1.9 1.9 0 0 0-.995-.283Zm2.633 15.692a2.792 2.792 0 0 1-1.466-.417 2.791 2.791 0 0 1-1.265-1.737l-2.633-10.979a2.794 2.794 0 0 1 .339-2.123 2.789 2.789 0 0 1 1.738-1.264 2.782 2.782 0 0 1 2.122.338 2.793 2.793 0 0 1 1.265 1.738l2.633 10.979a2.792 2.792 0 0 1-.34 2.122 2.782 2.782 0 0 1-1.737 1.265 2.774 2.774 0 0 1-.656.078ZM151.748 104.914c-.268 0-.537.031-.804.096a3.424 3.424 0 0 0-2.135 1.555 3.428 3.428 0 0 0-.418 2.608l4.365 18.203a3.456 3.456 0 0 0 4.165 2.554 3.435 3.435 0 0 0 2.135-1.556c.483-.79.631-1.716.417-2.609l-4.365-18.203a3.433 3.433 0 0 0-1.555-2.135 3.449 3.449 0 0 0-1.805-.513Zm4.368 26.017a4.37 4.37 0 0 1-4.241-3.344l-4.365-18.202a4.326 4.326 0 0 1 .527-3.294 4.34 4.34 0 0 1 5.989-1.436 4.33 4.33 0 0 1 1.963 2.696l4.365 18.203a4.328 4.328 0 0 1-.526 3.293 4.326 4.326 0 0 1-2.697 1.963c-.34.082-.68.121-1.015.121Z"/><path fill="#2F2F66" d="M101.496 127.377a2.637 2.637 0 0 0-1.515 3.03 2.623 2.623 0 0 0 2.724 2.014l-1.209-5.044Zm1.038 5.956a3.519 3.519 0 0 1-1.842-.523 3.52 3.52 0 0 1-1.592-2.191 3.544 3.544 0 0 1 2.616-4.267.455.455 0 0 1 .546.335l1.439 6.001a.452.452 0 0 1-.335.546 3.576 3.576 0 0 1-.832.099ZM158.705 108.615a1.906 1.906 0 0 0-1.851 2.348l2.633 10.979c.117.492.423.91.857 1.177a1.904 1.904 0 0 0 2.845-2.064l-2.632-10.979a1.909 1.909 0 0 0-1.852-1.461Zm2.633 15.694a2.796 2.796 0 0 1-1.467-.418 2.784 2.784 0 0 1-1.265-1.738l-2.633-10.978a2.816 2.816 0 0 1 2.076-3.388 2.818 2.818 0 0 1 3.389 2.078l2.633 10.978a2.816 2.816 0 0 1-2.733 3.466Z"/><path fill="#2F2F66" d="m162.151 112.831 1.211 5.045a2.639 2.639 0 0 0 1.514-3.031 2.607 2.607 0 0 0-1.184-1.63 2.607 2.607 0 0 0-1.541-.384Zm.885 6.081a.455.455 0 0 1-.441-.347l-1.439-6.001a.453.453 0 0 1 .335-.546 3.513 3.513 0 0 1 2.675.424 3.517 3.517 0 0 1 1.591 2.191 3.543 3.543 0 0 1-2.616 4.267.463.463 0 0 1-.105.012ZM132.119 115.971c-.603 0-1.26.051-1.969.156-2.248.335-3.908 1.364-4.331 2.686-.272.853.022 1.725.85 2.522 2.861 2.988 6.149 3.382 8.833 1.093.838-.716 1.155-2.043.94-3.946l-.003-.012c-.308-1.628-1.851-2.499-4.32-2.499Zm-.384 8.826c-1.781 0-3.749-.776-5.682-2.796-1.091-1.052-1.476-2.277-1.096-3.464.528-1.653 2.467-2.92 5.06-3.306 4.071-.602 6.797.524 7.303 3.022a.426.426 0 0 1 .016.079c.262 2.246-.157 3.855-1.246 4.784-1.16.99-2.674 1.681-4.355 1.681ZM234.475 228.604a.452.452 0 0 1-.332-.144c-8.725-9.424-10.712-19.958-10.842-27.136a.453.453 0 0 1 .445-.461c.257.015.456.194.461.445.128 7.02 2.07 17.322 10.601 26.536a.453.453 0 0 1-.333.76ZM244.937 224.082a.45.45 0 0 1-.324-.137c-9.282-9.508-11.449-20.306-11.633-27.688a.453.453 0 0 1 .441-.465h.012c.244 0 .446.196.453.441.179 7.221 2.299 17.781 11.374 27.079a.452.452 0 0 1-.323.77ZM305.996 189.915a.452.452 0 0 1-.232-.065c-16.234-9.759-17.304-20.463-17.341-20.915a.452.452 0 0 1 .413-.488c.222-.027.467.163.489.412.01.106 1.093 10.612 16.671 20.074 15.579-9.462 16.662-19.968 16.672-20.074a.468.468 0 0 1 .489-.412c.249.021.434.24.413.488-.037.452-1.108 11.156-17.34 20.915a.454.454 0 0 1-.234.065Z"/><path fill="#2F2F66" d="M305.997 196.697a.446.446 0 0 1-.243-.071c-14.443-9.263-20.703-19.136-23.412-25.787a.454.454 0 0 1 .839-.342c2.644 6.493 8.748 16.12 22.816 25.208 14.069-9.088 20.173-18.714 22.816-25.206a.453.453 0 0 1 .839.341c-2.709 6.651-8.969 16.523-23.41 25.786a.448.448 0 0 1-.245.071ZM325.898 102.747l.304.543c.061.107 5.861 10.357 10.457 12.494.239-1.348.917-5 1.99-9.36 1.451-5.9-.988-10.069-2.571-12.028l-.225-.278.219-.284c.069-.091 6.998-9.267 1.194-17.262-6.391-8.801-15.254-7.613-21.562-5.064-5.352 2.16-9.372 2.413-11.031.698-1.015-1.05-1.108-2.704-.276-4.924-2.514.566-10.934 3.47-20.149 17.816l-.091.104c-.067.056-6.804 5.744-9.501 12.826-1.995 5.238-.753 10.616.154 14.543.258 1.115.489 2.116.626 2.998 2.29-1.829 10.174-8.506 11.415-14.649l.133-.659.561.371c.251.167 25.148 16.399 37.93 2.572l.423-.457Zm-51.193 14.52-.072-.81c-.087-1.003-.374-2.244-.706-3.683-.933-4.039-2.211-9.574-.118-15.069 2.686-7.049 9.013-12.56 9.714-13.153 11.232-17.456 21.156-18.28 21.573-18.307l.746-.047-.303.683c-.681 1.54-1.272 3.604-.216 4.695 1.351 1.395 5.197 1.048 10.041-.909 6.609-2.668 15.9-3.903 22.635 5.373 5.603 7.718.161 16.379-1.003 18.058 1.684 2.19 4.014 6.523 2.533 12.542-1.345 5.462-2.065 9.803-2.072 9.846l-.087.527-.505-.171c-4.429-1.5-9.808-10.292-11.147-12.58-12.312 12.481-34.379-.223-38.128-2.53-1.945 7.306-11.804 14.727-12.235 15.049l-.65.486Z"/><path fill="#F25443" d="M413.936 299.728c-1.157.413-2.454.008-3.219-.952-3.781-4.748-5.37-8.637-4.372-10.83 1.5-3.295 9.156-4.829 13.857-4.829h11.951c4.702 0 12.358 1.534 13.858 4.829.999 2.193-.59 6.081-4.372 10.83-.765.959-2.062 1.364-3.219.952a36.433 36.433 0 0 0-12.241-2.106 36.44 36.44 0 0 0-12.243 2.106Zm35.203 6.017a1.478 1.478 0 0 1-.24-2.057c5.804-7.503 7.514-14.009 5.073-19.366-4.403-9.675-20.048-9.954-21.819-9.954h-11.951c-1.77 0-17.413.279-21.818 9.954-2.44 5.357-.73 11.863 5.073 19.366.494.64.387 1.55-.241 2.057-8.267 6.695-13.554 16.926-13.554 28.393 0 10.137 4.137 19.302 10.807 25.917a5.856 5.856 0 0 0 4.121 1.691h43.177a5.852 5.852 0 0 0 4.12-1.691c6.671-6.615 10.807-15.78 10.807-25.917 0-11.467-5.286-21.698-13.555-28.393Z"/><path fill="#F79045" d="M432.153 274.368h-11.951c-1.77 0-17.413.279-21.818 9.954-1.004 2.201-1.294 4.601-.898 7.18h8.933c-.451-1.437-.49-2.645-.075-3.556 1.5-3.295 9.156-4.829 13.858-4.829h11.951c4.702 0 12.358 1.534 13.858 4.829.415.911.377 2.119-.074 3.556h8.932c.396-2.579.106-4.979-.898-7.18-4.403-9.675-20.048-9.954-21.818-9.954Z"/><path fill="#C5BEE5" d="M389.662 334.138c0 1.215.07 2.412.186 3.596h72.661c.116-1.184.185-2.381.185-3.596 0-4.393-.777-8.603-2.198-12.505h-68.635a36.42 36.42 0 0 0-2.199 12.505Z"/><path fill="#F79045" d="M396.722 355.698a36.783 36.783 0 0 0 3.745 4.357 5.852 5.852 0 0 0 4.121 1.691h43.177a5.848 5.848 0 0 0 4.12-1.691 36.79 36.79 0 0 0 3.746-4.357h-58.909Z"/><path fill="#2F2F66" d="M390.26 337.282h71.836c.097-1.101.145-2.134.145-3.144 0-4.133-.693-8.186-2.063-12.051h-67.999a35.978 35.978 0 0 0-2.064 12.051c0 1.005.048 2.037.145 3.144Zm72.249.906h-72.661a.454.454 0 0 1-.451-.41 36.904 36.904 0 0 1-.188-3.64c0-4.348.748-8.606 2.226-12.659a.453.453 0 0 1 .426-.298h68.635c.19 0 .36.119.426.298a36.885 36.885 0 0 1 2.225 12.659 37.03 37.03 0 0 1-.187 3.64.454.454 0 0 1-.451.41Z"/><path fill="#2F2F66" d="M420.202 283.57c-4.766 0-12.089 1.586-13.445 4.564-.91 1.999.663 5.775 4.315 10.359.657.826 1.747 1.153 2.712.809 7.948-2.829 16.842-2.829 24.788 0 .962.34 2.054.017 2.713-.809 3.653-4.585 5.224-8.361 4.314-10.359-1.356-2.978-8.68-4.564-13.446-4.564h-11.951Zm-7.203 16.773a3.376 3.376 0 0 1-2.636-1.286c-3.928-4.931-5.502-8.945-4.431-11.298 1.6-3.514 9.308-5.095 14.27-5.095h11.951c4.963 0 12.67 1.581 14.27 5.095 1.073 2.353-.501 6.366-4.43 11.298-.899 1.13-2.393 1.573-3.726 1.098-7.748-2.758-16.427-2.76-24.179 0a3.237 3.237 0 0 1-1.089.188Zm7.203-25.522c-1.739 0-17.119.272-21.406 9.688-2.361 5.183-.672 11.543 5.019 18.902a1.92 1.92 0 0 1-.314 2.686c-8.507 6.888-13.386 17.109-13.386 28.041 0 9.679 3.79 18.77 10.673 25.595 1 .992 2.386 1.56 3.802 1.56h43.177a5.431 5.431 0 0 0 3.801-1.56c6.883-6.824 10.673-15.915 10.673-25.595 0-10.933-4.88-21.153-13.386-28.041h-.001a1.924 1.924 0 0 1-.314-2.686c5.692-7.358 7.381-13.718 5.019-18.902-4.285-9.416-19.666-9.688-21.406-9.688h-11.951Zm27.565 87.378H404.59a6.353 6.353 0 0 1-4.44-1.821c-7.056-6.999-10.941-16.316-10.941-26.24 0-11.206 5.001-21.684 13.722-28.745.439-.355.513-.982.168-1.428-5.913-7.646-7.639-14.318-5.127-19.831 4.521-9.931 20.431-10.219 22.23-10.219h11.951c1.8 0 17.711.288 22.231 10.219 2.512 5.514.787 12.186-5.127 19.831a1.022 1.022 0 0 0 .168 1.428c8.721 7.06 13.722 17.538 13.722 28.745 0 9.925-3.886 19.243-10.94 26.24a6.356 6.356 0 0 1-4.44 1.821Z"/><path fill="#2F2F66" d="M406.423 291.955h-8.936a.452.452 0 1 1 0-.906h8.936a.453.453 0 0 1 0 .906ZM454.879 291.955h-8.938a.453.453 0 1 1 0-.906h8.938a.453.453 0 1 1 0 .906ZM454.878 356.151h-58.156a.452.452 0 1 1 0-.906h58.156a.452.452 0 1 1 0 .906Z"/><path fill="#F25443" d="M184.255 304.333a3.794 3.794 0 0 1 3.783-3.782h21.676a3.794 3.794 0 0 1 3.783 3.782 3.794 3.794 0 0 1-3.783 3.783h-21.676a3.794 3.794 0 0 1-3.783-3.783ZM184.255 354.191a3.794 3.794 0 0 0 3.783 3.783h21.676a3.794 3.794 0 0 0 3.783-3.783 3.793 3.793 0 0 0-3.783-3.782h-21.676a3.793 3.793 0 0 0-3.783 3.782Z"/><path fill="#F79045" d="M194.871 342.844v-27.162h8.005v27.162h-8.005ZM194.871 297.329v3.223h8.005v-3.223c0-.584-.473-1.057-1.057-1.057h-5.891c-.583 0-1.057.473-1.057 1.057ZM194.871 361.197v-3.223h8.005v3.223c0 .585-.473 1.058-1.057 1.058h-5.891a1.058 1.058 0 0 1-1.057-1.058Z"/><path fill="#C5BEE5" d="M179.908 311.9a3.794 3.794 0 0 1 3.783-3.783h30.368a3.794 3.794 0 0 1 3.783 3.783 3.794 3.794 0 0 1-3.783 3.783h-30.368a3.794 3.794 0 0 1-3.783-3.783ZM179.908 346.626a3.794 3.794 0 0 0 3.783 3.783h30.368a3.794 3.794 0 0 0 3.783-3.783 3.794 3.794 0 0 0-3.783-3.783h-30.368a3.794 3.794 0 0 0-3.783 3.783Z"/><path fill="#2F2F66" d="M183.691 308.569a3.335 3.335 0 0 0-3.33 3.331 3.334 3.334 0 0 0 3.33 3.329h30.368a3.334 3.334 0 0 0 3.33-3.329 3.335 3.335 0 0 0-3.33-3.331h-30.368Zm30.368 7.566h-30.368a4.24 4.24 0 0 1-4.236-4.235 4.241 4.241 0 0 1 4.236-4.236h30.368c2.335 0 4.236 1.9 4.236 4.236a4.24 4.24 0 0 1-4.236 4.235Z"/><path fill="#2F2F66" d="M188.039 301.004a3.334 3.334 0 0 0-3.33 3.329 3.333 3.333 0 0 0 3.33 3.33h21.676a3.333 3.333 0 0 0 3.33-3.33 3.334 3.334 0 0 0-3.33-3.329h-21.676Zm21.676 7.565h-21.676a4.24 4.24 0 0 1-4.236-4.236 4.24 4.24 0 0 1 4.236-4.235h21.676a4.24 4.24 0 0 1 4.236 4.235 4.24 4.24 0 0 1-4.236 4.236ZM183.691 343.296a3.335 3.335 0 0 0-3.33 3.33 3.334 3.334 0 0 0 3.33 3.33h30.368a3.334 3.334 0 0 0 3.33-3.33 3.335 3.335 0 0 0-3.33-3.33h-30.368Zm30.368 7.566h-30.368a4.241 4.241 0 0 1-4.236-4.236 4.242 4.242 0 0 1 4.236-4.236h30.368a4.242 4.242 0 0 1 4.236 4.236 4.241 4.241 0 0 1-4.236 4.236Z"/><path fill="#2F2F66" d="M188.039 350.862a3.333 3.333 0 0 0-3.33 3.33 3.334 3.334 0 0 0 3.33 3.329h21.676a3.334 3.334 0 0 0 3.33-3.329 3.333 3.333 0 0 0-3.33-3.33h-21.676Zm21.676 7.565h-21.676a4.24 4.24 0 0 1-4.236-4.235 4.24 4.24 0 0 1 4.236-4.236h21.676a4.24 4.24 0 0 1 4.236 4.236 4.24 4.24 0 0 1-4.236 4.235ZM195.324 342.39h7.099v-26.255h-7.099v26.255Zm7.552.906h-8.005a.453.453 0 0 1-.453-.453v-27.161c0-.251.203-.453.453-.453h8.005c.251 0 .453.202.453.453v27.161a.452.452 0 0 1-.453.453ZM195.324 300.098h7.099v-2.769a.605.605 0 0 0-.605-.605h-5.89a.605.605 0 0 0-.604.605v2.769Zm7.552.906h-8.005a.453.453 0 0 1-.453-.453v-3.222c0-.833.678-1.511 1.51-1.511h5.89c.833 0 1.511.678 1.511 1.511v3.222c0 .25-.202.453-.453.453Z"/><path fill="#2F2F66" d="M195.324 358.428v2.77c0 .333.271.604.604.604h5.89a.604.604 0 0 0 .605-.604v-2.77h-7.099Zm6.494 4.28h-5.89c-.832 0-1.51-.678-1.51-1.51v-3.223c0-.251.203-.453.453-.453h8.005c.251 0 .453.202.453.453v3.223c0 .832-.678 1.51-1.511 1.51Z"/><path fill="#F25443" d="M155.475 360.659a3.794 3.794 0 0 1-5.163 1.403L131.5 351.291a3.792 3.792 0 0 1-1.403-5.161 3.795 3.795 0 0 1 5.162-1.404l18.812 10.771a3.795 3.795 0 0 1 1.404 5.162ZM180.252 317.391a3.796 3.796 0 0 0-1.403-5.163l-18.813-10.769a3.794 3.794 0 0 0-5.162 1.402 3.794 3.794 0 0 0 1.404 5.163l18.812 10.769a3.793 3.793 0 0 0 5.162-1.402Z"/><path fill="#C5BEE5" d="M163.007 356.253a3.795 3.795 0 0 1-5.162 1.404l-26.355-15.088a3.795 3.795 0 0 1-1.403-5.163v-.001a3.795 3.795 0 0 1 5.162-1.403l26.355 15.089a3.793 3.793 0 0 1 1.403 5.162ZM180.261 326.116a3.795 3.795 0 0 0-1.404-5.162l-26.355-15.088a3.794 3.794 0 0 0-5.162 1.403 3.794 3.794 0 0 0 1.403 5.162l26.355 15.088a3.794 3.794 0 0 0 5.163-1.403Z"/><path fill="#F79045" d="M165.395 321.964 151.9 345.536l-6.947-3.978 13.495-23.571 6.947 3.977ZM142.783 361.464l1.601-2.797-6.947-3.978-1.601 2.797a1.058 1.058 0 0 0 .392 1.443l5.112 2.927c.507.29 1.153.114 1.443-.392ZM174.515 306.035l-1.602 2.797-6.947-3.977 1.601-2.797c.29-.507.936-.682 1.443-.392l5.111 2.927c.508.29.684.936.394 1.442Z"/><path fill="#2F2F66" d="M133.378 335.957a3.333 3.333 0 0 0-2.896 1.673 3.336 3.336 0 0 0 1.235 4.546l26.355 15.088a3.334 3.334 0 0 0 4.544-1.236 3.31 3.31 0 0 0 .32-2.526 3.318 3.318 0 0 0-1.555-2.019l-26.355-15.088a3.315 3.315 0 0 0-1.648-.438Zm26.333 22.651a4.178 4.178 0 0 1-2.089-.559l-26.355-15.088a4.238 4.238 0 0 1-1.571-5.779 4.238 4.238 0 0 1 5.78-1.572l26.355 15.088a4.24 4.24 0 0 1 1.571 5.78 4.205 4.205 0 0 1-2.566 1.979c-.372.101-.75.151-1.125.151Z"/><path fill="#2F2F66" d="M133.387 344.681a3.332 3.332 0 0 0-2.895 1.674 3.307 3.307 0 0 0-.319 2.527 3.306 3.306 0 0 0 1.555 2.018l18.812 10.769c.768.44 1.664.554 2.527.32a3.306 3.306 0 0 0 2.017-1.554 3.335 3.335 0 0 0-1.235-4.545l-18.813-10.77a3.317 3.317 0 0 0-1.649-.439Zm18.8 18.334c-.713 0-1.435-.18-2.098-.559l-18.812-10.771a4.202 4.202 0 0 1-1.978-2.565 4.202 4.202 0 0 1 .407-3.214 4.238 4.238 0 0 1 5.78-1.571l18.813 10.769a4.242 4.242 0 0 1 1.571 5.78 4.239 4.239 0 0 1-3.683 2.131ZM150.63 305.819a3.332 3.332 0 0 0-2.895 1.674 3.309 3.309 0 0 0-.319 2.528 3.301 3.301 0 0 0 1.554 2.016l26.355 15.089a3.306 3.306 0 0 0 2.527.32 3.31 3.31 0 0 0 2.336-4.083 3.302 3.302 0 0 0-1.553-2.016l-26.356-15.089a3.317 3.317 0 0 0-1.649-.439Zm26.335 22.652c-.727 0-1.444-.19-2.09-.559l-26.355-15.088a4.203 4.203 0 0 1-1.978-2.566 4.207 4.207 0 0 1 .406-3.214 4.24 4.24 0 0 1 5.781-1.572l26.355 15.089a4.24 4.24 0 0 1 1.571 5.779 4.197 4.197 0 0 1-2.566 1.98c-.371.1-.749.151-1.124.151Z"/><path fill="#2F2F66" d="M158.158 301.413a3.334 3.334 0 0 0-2.895 1.673 3.306 3.306 0 0 0-.319 2.529c.234.86.786 1.577 1.554 2.016l18.812 10.771a3.316 3.316 0 0 0 2.528.319 3.305 3.305 0 0 0 2.016-1.555 3.334 3.334 0 0 0-1.235-4.544l-18.812-10.771a3.319 3.319 0 0 0-1.649-.438Zm18.792 18.333a4.185 4.185 0 0 1-2.089-.559l-18.813-10.77a4.205 4.205 0 0 1-1.979-2.566 4.207 4.207 0 0 1 .407-3.214 4.24 4.24 0 0 1 5.78-1.571l18.813 10.771a4.24 4.24 0 0 1 1.571 5.779 4.202 4.202 0 0 1-2.566 1.979c-.371.1-.749.151-1.124.151ZM145.571 341.39l6.161 3.527 13.045-22.785-6.161-3.528-13.045 22.786Zm6.329 4.598a.46.46 0 0 1-.225-.06l-6.947-3.977a.453.453 0 0 1-.168-.618l13.495-23.571a.456.456 0 0 1 .618-.169l6.947 3.978a.451.451 0 0 1 .168.617l-13.495 23.572a.453.453 0 0 1-.393.228ZM137.605 355.308l-1.376 2.403a.605.605 0 0 0 .224.825l5.112 2.927a.601.601 0 0 0 .824-.224l1.377-2.404-6.161-3.527Zm4.257 7.141c-.26 0-.516-.068-.747-.201l-5.112-2.926a1.513 1.513 0 0 1-.561-2.061l1.601-2.797a.453.453 0 0 1 .619-.167l6.947 3.976a.453.453 0 0 1 .168.618l-1.601 2.797a1.516 1.516 0 0 1-1.314.761Z"/><path fill="#2F2F66" d="m166.584 304.687 6.161 3.527 1.376-2.403a.605.605 0 0 0-.224-.825l-5.112-2.926a.604.604 0 0 0-.825.223l-1.376 2.404Zm6.329 4.598a.447.447 0 0 1-.225-.06l-6.947-3.978a.45.45 0 0 1-.168-.616l1.601-2.797a1.51 1.51 0 0 1 2.061-.56l5.111 2.926c.351.2.602.525.708.914a1.49 1.49 0 0 1-.147 1.146l-1.601 2.797a.45.45 0 0 1-.393.228ZM143.196 85.185c-4.377 0-4.385 6.803 0 6.803 4.378 0 4.384-6.803 0-6.803ZM30.825 354.062c-4.378 0-4.385 6.803 0 6.803 4.377 0 4.385-6.803 0-6.803ZM458.883 168.123c-4.377 0-4.385 6.803 0 6.803 4.379 0 4.386-6.803 0-6.803Z"/><path fill="#F79045" d="M48.684 255.738a.68.68 0 0 1-.68-.68V244.32a.68.68 0 0 1 1.36 0v10.738a.68.68 0 0 1-.68.68Z"/><path fill="#F79045" d="M54.057 250.371H43.322a.68.68 0 1 1 0-1.36h10.736a.68.68 0 1 1 0 1.36ZM563.258 242.38a.68.68 0 0 1-.68-.68v-10.735a.68.68 0 1 1 1.361 0V241.7a.68.68 0 0 1-.681.68Z"/><path fill="#F79045" d="M568.622 237.013h-10.735a.68.68 0 1 1 0-1.361h10.735a.68.68 0 1 1 0 1.361Z"/><path fill="#F25443" d="m467.992 71.511-3.403-3.401a1.364 1.364 0 0 1 0-1.926l3.403-3.401a1.36 1.36 0 0 1 1.924 0l3.403 3.401a1.36 1.36 0 0 1 0 1.926l-3.403 3.401a1.36 1.36 0 0 1-1.924 0ZM98.108 286.297l-3.401-3.403a1.36 1.36 0 0 1 0-1.923l3.401-3.403a1.359 1.359 0 0 1 1.924 0l3.403 3.403c.532.53.532 1.392 0 1.923l-3.403 3.403a1.36 1.36 0 0 1-1.924 0ZM3.802 17.127.399 13.725a1.36 1.36 0 0 1 0-1.924l3.403-3.403a1.362 1.362 0 0 1 1.924 0L9.128 11.8a1.36 1.36 0 0 1 0 1.924l-3.402 3.402c-.532.531-1.393.531-1.924 0Z"/></svg>